<?xml version="1.0" encoding="UTF-8" standalone="no"?>
<!-- Generator: Adobe Illustrator 24.0.3, SVG Export Plug-In . SVG Version: 6.00 Build 0)  -->

<svg
   version="1.1"
   x="0px"
   y="0px"
   viewBox="0 0 128 128"
   style="enable-background:new 0 0 128 128;"
   xml:space="preserve"
   id="svg26"
   sodipodi:docname="wand.svg"
   inkscape:version="1.3.2 (091e20ef0f, 2023-11-25)"
   xmlns:inkscape="http://www.inkscape.org/namespaces/inkscape"
   xmlns:sodipodi="http://sodipodi.sourceforge.net/DTD/sodipodi-0.dtd"
   xmlns="http://www.w3.org/2000/svg"
   xmlns:svg="http://www.w3.org/2000/svg"><defs
   id="defs26" /><sodipodi:namedview
   id="namedview26"
   pagecolor="#ffffff"
   bordercolor="#000000"
   borderopacity="0.25"
   inkscape:showpageshadow="2"
   inkscape:pageopacity="0.0"
   inkscape:pagecheckerboard="0"
   inkscape:deskcolor="#d1d1d1"
   inkscape:zoom="1.84375"
   inkscape:cx="63.728814"
   inkscape:cy="63.728814"
   inkscape:window-width="1888"
   inkscape:window-height="1447"
   inkscape:window-x="368"
   inkscape:window-y="26"
   inkscape:window-maximized="1"
   inkscape:current-layer="svg26" />
<g
   id="Layer_3"
   transform="matrix(-1,0,0,1,128.03375,0)">
	<g
   id="g26">
		<g
   id="g18">
			
				<linearGradient
   id="SVGID_1_"
   gradientUnits="userSpaceOnUse"
   x1="50.038601"
   y1="68.904297"
   x2="58.7966"
   y2="68.904297"
   gradientTransform="matrix(0.7071,0.7071,-0.7895,0.7895,69.2392,-17.7043)">
				<stop
   offset="0.5947"
   style="stop-color:#616161"
   id="stop1" />
				<stop
   offset="0.7746"
   style="stop-color:#565656"
   id="stop2" />
				<stop
   offset="1"
   style="stop-color:#424242"
   id="stop3" />
			</linearGradient>
			<polygon
   style="fill:url(#SVGID_1_)"
   points="4.61,117.69 95.84,26.46 102.03,32.65 10.8,123.89 "
   id="polygon3" />
			<linearGradient
   id="SVGID_2_"
   gradientUnits="userSpaceOnUse"
   x1="88.879799"
   y1="34.518101"
   x2="95.665497"
   y2="41.303799">
				<stop
   offset="0.2622"
   style="stop-color:#F5F5F5"
   id="stop4" />
				<stop
   offset="0.4658"
   style="stop-color:#EAEAEA"
   id="stop5" />
				<stop
   offset="0.8221"
   style="stop-color:#CDCDCD"
   id="stop6" />
				<stop
   offset="0.9891"
   style="stop-color:#BDBDBD"
   id="stop7" />
			</linearGradient>
			<path
   style="fill:url(#SVGID_2_)"
   d="m 100.04,28.46 c -2.25,-2.25 -4.19,-2 -4.19,-2 L 79.73,42.58 c 0.95,-0.21 2.62,0.6 4.11,2.08 1.48,1.48 2.29,3.15 2.08,4.11 l 16.12,-16.12 c -0.01,0 0.25,-1.93 -2,-4.19 z"
   id="path7" />
			<linearGradient
   id="SVGID_3_"
   gradientUnits="userSpaceOnUse"
   x1="13.9134"
   y1="109.4758"
   x2="20.714899"
   y2="116.2774">
				<stop
   offset="0.2622"
   style="stop-color:#F5F5F5"
   id="stop8" />
				<stop
   offset="0.4658"
   style="stop-color:#EAEAEA"
   id="stop9" />
				<stop
   offset="0.8221"
   style="stop-color:#CDCDCD"
   id="stop10" />
				<stop
   offset="0.9891"
   style="stop-color:#BDBDBD"
   id="stop11" />
			</linearGradient>
			<path
   style="fill:url(#SVGID_3_)"
   d="m 25.1,103.4 c -2.25,-2.25 -4.19,-2 -4.19,-2 L 4.74,117.56 c 0.95,-0.21 2.67,0.56 4.16,2.04 1.48,1.48 2.25,3.21 2.04,4.16 L 27.1,107.59 c 0,0 0.25,-1.94 -2,-4.19 z"
   id="path11" />
			
				<ellipse
   transform="matrix(0.7071,-0.7071,0.7071,0.7071,-83.0625,40.8672)"
   style="fill:#9e9e9e"
   cx="7.8000002"
   cy="120.7"
   rx="1.9400001"
   ry="4.3800001"
   id="ellipse11" />
			<linearGradient
   id="SVGID_4_"
   gradientUnits="userSpaceOnUse"
   x1="68.386101"
   y1="60.106899"
   x2="102.9845"
   y2="25.508499">
				<stop
   offset="0"
   style="stop-color:#FADA80;stop-opacity:0"
   id="stop12" />
				<stop
   offset="1"
   style="stop-color:#FADA80"
   id="stop13" />
			</linearGradient>
			<path
   style="opacity:0.85;fill:url(#SVGID_4_)"
   d="M 95.82,26.48 27.88,94.43 c -0.76,0.76 0.01,2.76 1.72,4.46 1.71,1.71 3.71,2.48 4.46,1.72 l 67.95,-67.95 c 0,0 0.42,-1.88 -1.98,-4.21 -2.4,-2.33 -4.21,-1.97 -4.21,-1.97 z"
   id="path13" />
			<linearGradient
   id="SVGID_5_"
   gradientUnits="userSpaceOnUse"
   x1="-2.5097001"
   y1="131.0027"
   x2="21.4338"
   y2="107.0592">
				<stop
   offset="0"
   style="stop-color:#1A237E"
   id="stop14" />
				<stop
   offset="0.186"
   style="stop-color:#1D2A87;stop-opacity:0.814"
   id="stop15" />
				<stop
   offset="0.4903"
   style="stop-color:#243DA0;stop-opacity:0.5097"
   id="stop16" />
				<stop
   offset="0.873"
   style="stop-color:#2F5CC7;stop-opacity:0.127"
   id="stop17" />
				<stop
   offset="1"
   style="stop-color:#3367D6;stop-opacity:0"
   id="stop18" />
			</linearGradient>
			<path
   style="opacity:0.22;fill:url(#SVGID_5_)"
   d="M 72.59,49.71 4.65,117.66 c -0.76,0.76 0.01,2.76 1.72,4.46 1.71,1.71 3.71,2.48 4.46,1.72 L 78.79,55.9 c 0,0 0.42,-1.88 -1.98,-4.21 -2.41,-2.32 -4.22,-1.98 -4.22,-1.98 z"
   id="path18" />
		</g>
		
			<radialGradient
   id="SVGID_6_"
   cx="75.918297"
   cy="23.0455"
   r="14.7841"
   gradientTransform="matrix(0.9993,0.038,-0.038,0.9993,0.9277,-2.8392)"
   gradientUnits="userSpaceOnUse">
			<stop
   offset="0"
   style="stop-color:#FFEB3B"
   id="stop19" />
			<stop
   offset="1"
   style="stop-color:#FBC02D"
   id="stop20" />
		</radialGradient>
		<path
   style="fill:url(#SVGID_6_)"
   d="m 68.37,18.82 5.98,-5.96 c 0.33,-0.33 0.9,-0.06 0.85,0.41 l -0.77,6.99 c -0.03,0.27 0.16,0.52 0.44,0.55 l 8.56,1.02 c 0.5,0.06 0.61,0.74 0.14,0.95 l -8.92,3.99 c -0.13,0.06 -0.23,0.18 -0.27,0.32 l -2.58,8.85 c -0.12,0.43 -0.7,0.49 -0.91,0.1 L 66.9,28.79 c -0.09,-0.17 -0.28,-0.27 -0.48,-0.26 l -7.66,0.62 c -0.47,0.04 -0.72,-0.53 -0.39,-0.85 l 5.08,-4.95 c 0.15,-0.14 0.19,-0.37 0.11,-0.56 l -2.69,-6.15 c -0.18,-0.42 0.25,-0.85 0.67,-0.65 l 6.29,2.94 c 0.17,0.08 0.39,0.04 0.54,-0.11 z"
   id="path20" />
		
			<radialGradient
   id="SVGID_7_"
   cx="99.385399"
   cy="64.954903"
   r="11.883"
   gradientTransform="matrix(0.9392,-0.3435,0.3435,0.9392,-17.3837,37.6633)"
   gradientUnits="userSpaceOnUse">
			<stop
   offset="0"
   style="stop-color:#FFEB3B"
   id="stop21" />
			<stop
   offset="1"
   style="stop-color:#FBC02D"
   id="stop22" />
		</radialGradient>
		<path
   style="fill:url(#SVGID_7_)"
   d="m 90.09,63.26 4.74,2.19 c 0.12,0.06 0.26,0.04 0.36,-0.04 l 4.75,-3.59 c 0.25,-0.19 0.59,0.01 0.57,0.31 l -0.45,5.9 c -0.01,0.13 0.05,0.26 0.17,0.33 l 4.53,2.8 c 0.27,0.17 0.2,0.59 -0.12,0.65 l -5.68,1.17 c -0.14,0.03 -0.25,0.13 -0.28,0.27 l -1.21,5.35 c -0.07,0.32 -0.5,0.38 -0.66,0.09 L 94.29,74.08 C 94.23,73.96 94.1,73.89 93.97,73.89 l -5.96,0.19 c -0.31,0.01 -0.48,-0.35 -0.29,-0.59 l 3.84,-4.59 c 0.09,-0.1 0.11,-0.24 0.06,-0.37 L 89.6,63.71 c -0.11,-0.29 0.2,-0.59 0.49,-0.45 z"
   id="path22" />
		
			<radialGradient
   id="SVGID_8_"
   cx="134.58681"
   cy="-6.3541999"
   r="16.4519"
   gradientTransform="matrix(-0.2474,0.9423,-1.0398,-0.1868,134.7166,-108.9707)"
   gradientUnits="userSpaceOnUse">
			<stop
   offset="0.3247"
   style="stop-color:#FFEB3B"
   id="stop23" />
			<stop
   offset="1"
   style="stop-color:#FBC02D"
   id="stop24" />
		</radialGradient>
		<path
   style="fill:url(#SVGID_8_)"
   d="m 109.65,11.65 8.43,-3.74 c 0.42,-0.19 0.79,0.23 0.57,0.63 l -4.17,7.68 c -0.1,0.18 -0.08,0.4 0.05,0.54 l 9.03,8.76 c 0.27,0.28 0.04,0.78 -0.37,0.8 l -11.08,-1.95 c -0.17,0.01 -0.33,0.11 -0.42,0.27 l -5.83,10.67 c -0.22,0.39 -0.78,0.35 -0.87,-0.06 l -1.14,-10.39 c -0.04,-0.18 -0.2,-0.31 -0.39,-0.33 l -9.15,-1.49 c -0.39,-0.03 -0.54,-0.5 -0.24,-0.79 l 7.65,-5.88 c 0.11,-0.11 0.17,-0.26 0.15,-0.41 L 100.5,4.38 c -0.04,-0.44 0.51,-0.73 0.82,-0.43 l 7.82,7.62 c 0.13,0.12 0.33,0.15 0.51,0.08 z"
   id="path24" />
		<g
   id="g25">
			<path
   style="fill:#fdd835"
   d="m 96.29,26.87 c -3.74,0.96 -7.53,1.79 -11.4,2.11 -3.87,0.35 -7.8,0.07 -11.62,-0.62 -3.82,-0.71 -7.57,-1.6 -11.35,-2.3 -3.78,-0.7 -7.58,-1.26 -11.4,-1.7 -1.91,-0.22 -3.83,-0.38 -5.74,-0.57 -1.87,-0.18 -3.72,-0.13 -5.48,0.28 -1.73,0.44 -3.34,1.27 -4.38,2.63 -1.05,1.34 -1.55,3.08 -1.55,4.87 -0.02,3.61 1.43,7.21 3.27,10.46 1.85,3.27 4.28,6.24 6.71,9.21 4.84,5.96 10.07,11.63 15.26,17.34 2.6,2.86 5.2,5.71 7.76,8.61 2.58,2.88 5.07,5.85 7.45,8.91 2.39,3.05 4.66,6.24 6.51,9.7 0.46,0.84 0.97,1.77 1.12,2.89 0.05,0.57 -0.01,1.2 -0.33,1.76 -0.32,0.56 -0.85,0.91 -1.36,1.14 -1.05,0.42 -2.09,0.45 -3.09,0.4 -1,-0.06 -1.98,-0.22 -2.94,-0.44 -3.82,-0.93 -7.39,-2.52 -10.83,-4.31 -1.72,-0.9 -3.4,-1.86 -5.05,-2.87 -1.64,-1.02 -3.25,-2.1 -4.83,-3.2 3.28,2.04 6.64,3.94 10.11,5.59 3.47,1.64 7.08,3.07 10.79,3.82 0.93,0.17 1.86,0.31 2.78,0.34 0.92,0.03 1.85,-0.05 2.59,-0.37 0.36,-0.17 0.66,-0.39 0.81,-0.69 0.15,-0.29 0.19,-0.66 0.15,-1.05 -0.12,-0.8 -0.55,-1.6 -1.04,-2.43 C 77.34,93.08 75.05,90 72.61,87.04 62.85,75.2 51.73,64.44 41.81,52.5 39.38,49.49 36.92,46.43 34.99,42.96 33.09,39.52 31.52,35.7 31.57,31.53 c 0.02,-2.06 0.62,-4.23 1.98,-5.93 1.35,-1.73 3.37,-2.73 5.36,-3.21 2.01,-0.44 4.07,-0.49 6.04,-0.26 1.92,0.24 3.85,0.44 5.77,0.71 3.84,0.54 7.66,1.2 11.45,1.99 3.79,0.8 7.54,1.76 11.29,2.57 3.74,0.82 7.56,1.25 11.4,1.05 3.83,-0.18 7.64,-0.83 11.43,-1.58 z"
   id="path25" />
		</g>
		
			<radialGradient
   id="SVGID_9_"
   cx="92.760803"
   cy="70.092598"
   r="93.729401"
   gradientTransform="matrix(0.8599,0.5105,-0.306,0.5153,34.4455,-13.3849)"
   gradientUnits="userSpaceOnUse">
			<stop
   offset="0"
   style="stop-color:#FFEE58;stop-opacity:0"
   id="stop25" />
			<stop
   offset="1"
   style="stop-color:#FDD835"
   id="stop26" />
		</radialGradient>
		<path
   style="fill:url(#SVGID_9_)"
   d="m 67.78,35.64 c -11.25,2.62 -24.16,-5 -36.08,-3.66 -4.55,0.6 -6.42,6.04 -2.05,14.66 8.58,14.77 21.1,23.49 25.72,28.9 C 49.16,72.06 36.4,62.89 27.53,54.26 14.18,41.46 16.65,25.46 29.03,25.51 c 4.15,-0.4 12.18,1.6 15.54,2.83 3.31,1.33 14.58,6.24 23.21,7.3 z"
   id="path26" />
	</g>
</g>
<g
   id="Layer_2"
   transform="matrix(-1,0,0,1,128.03375,0)">
</g>
</svg>
