<?xml version="1.0" encoding="UTF-8" standalone="no"?>
<!-- Generator: Adobe Illustrator 24.0.3, SVG Export Plug-In . SVG Version: 6.00 Build 0)  -->

<svg version="1.1" x="0px" y="0px" viewBox="0 0 30 30.247975" xml:space="preserve" id="svg26" sodipodi:docname="wand.svg" width="30" height="30.247974" inkscape:version="1.2.2 (b0a8486541, 2022-12-01)" xmlns:inkscape="http://www.inkscape.org/namespaces/inkscape" xmlns:sodipodi="http://sodipodi.sourceforge.net/DTD/sodipodi-0.dtd" xmlns="http://www.w3.org/2000/svg" xmlns:svg="http://www.w3.org/2000/svg"><defs id="defs26">
	

		
		
			<radialGradient id="SVGID_6_" cx="75.918297" cy="23.0455" r="14.7841" gradientTransform="matrix(-0.25124971,0.00955418,0.00955418,0.25124971,30.86224,-1.6760747)" gradientUnits="userSpaceOnUse">
			<stop offset="0" style="stop-color:#FFEB3B" id="stop19" />
			<stop offset="1" style="stop-color:#FBC02D" id="stop20" />
		</radialGradient>
		
		
			<radialGradient id="SVGID_7_" cx="99.385399" cy="64.954903" r="11.883" gradientTransform="matrix(-0.23613903,-0.08636473,-0.08636473,0.23613903,35.466197,8.5072951)" gradientUnits="userSpaceOnUse">
			<stop offset="0" style="stop-color:#FFEB3B" id="stop21" />
			<stop offset="1" style="stop-color:#FBC02D" id="stop22" />
		</radialGradient>
		
		
			<radialGradient id="SVGID_8_" cx="134.58681" cy="-6.3541999" r="16.4519" gradientTransform="matrix(0.06220272,0.23691845,0.26143245,-0.04696632,-2.7757288,-28.360262)" gradientUnits="userSpaceOnUse">
			<stop offset="0.3247" style="stop-color:#FFEB3B" id="stop23" />
			<stop offset="1" style="stop-color:#FBC02D" id="stop24" />
		</radialGradient>
		
		
		
			<radialGradient id="SVGID_9_" cx="92.760803" cy="70.092598" r="93.729401" gradientTransform="matrix(-0.21620097,0.12835282,0.07693627,0.12955967,22.435004,-4.3275348)" gradientUnits="userSpaceOnUse">
			<stop offset="0" style="stop-color:#FFEE58;stop-opacity:0" id="stop25" />
			<stop offset="1" style="stop-color:#FDD835" id="stop26" />
		</radialGradient>
		
	
			
				<linearGradient id="SVGID_1_" gradientUnits="userSpaceOnUse" x1="50.038601" y1="68.904297" x2="58.7966" y2="68.904297" gradientTransform="matrix(0.7071,0.7071,-0.7895,0.7895,69.2392,-17.7043)">
				<stop offset="0.5947" style="stop-color:#616161" id="stop1" />
				<stop offset="0.7746" style="stop-color:#565656" id="stop2" />
				<stop offset="1" style="stop-color:#424242" id="stop3" />
			</linearGradient>
			
			<linearGradient id="SVGID_2_" gradientUnits="userSpaceOnUse" x1="88.879799" y1="34.518101" x2="95.665497" y2="41.303799" gradientTransform="matrix(-0.7165703,0,0,0.71662047,78.289942,-13.517287)">
				<stop offset="0.2622" style="stop-color:#F5F5F5" id="stop4" />
				<stop offset="0.4658" style="stop-color:#EAEAEA" id="stop5" />
				<stop offset="0.8221" style="stop-color:#CDCDCD" id="stop6" />
				<stop offset="0.9891" style="stop-color:#BDBDBD" id="stop7" />
			</linearGradient>
			
			<linearGradient id="SVGID_3_" gradientUnits="userSpaceOnUse" x1="13.9134" y1="109.4758" x2="20.714899" y2="116.2774" gradientTransform="matrix(-0.7165703,0,0,0.71662047,67.094698,-5.268836)">
				<stop offset="0.2622" style="stop-color:#F5F5F5" id="stop8" />
				<stop offset="0.4658" style="stop-color:#EAEAEA" id="stop9" />
				<stop offset="0.8221" style="stop-color:#CDCDCD" id="stop10" />
				<stop offset="0.9891" style="stop-color:#BDBDBD" id="stop11" />
			</linearGradient>
			
			
				
			<linearGradient id="SVGID_4_" gradientUnits="userSpaceOnUse" x1="68.386101" y1="60.106899" x2="102.9845" y2="25.508499" gradientTransform="matrix(-0.7165703,0,0,0.71662047,54.199412,-0.09290967)">
				<stop offset="0" style="stop-color:#FADA80;stop-opacity:0" id="stop12" />
				<stop offset="1" style="stop-color:#FADA80" id="stop13" />
			</linearGradient>
			
			<linearGradient id="SVGID_5_" gradientUnits="userSpaceOnUse" x1="-2.5097001" y1="131.0027" x2="21.4338" y2="107.0592" gradientTransform="matrix(-0.7165703,0,0,0.71662047,58.279497,-3.4916367)">
				<stop offset="0" style="stop-color:#1A237E" id="stop14" />
				<stop offset="0.186" style="stop-color:#1D2A87;stop-opacity:0.814" id="stop15" />
				<stop offset="0.4903" style="stop-color:#243DA0;stop-opacity:0.5097" id="stop16" />
				<stop offset="0.873" style="stop-color:#2F5CC7;stop-opacity:0.127" id="stop17" />
				<stop offset="1" style="stop-color:#3367D6;stop-opacity:0" id="stop18" />
			</linearGradient>
			
		</defs><sodipodi:namedview id="namedview26" pagecolor="#ffffff" bordercolor="#000000" borderopacity="0.25" inkscape:showpageshadow="2" inkscape:pageopacity="0.0" inkscape:pagecheckerboard="0" inkscape:deskcolor="#d1d1d1" inkscape:zoom="9.2728887" inkscape:cx="14.666411" inkscape:cy="42.273774" inkscape:window-width="1920" inkscape:window-height="1161" inkscape:window-x="0" inkscape:window-y="0" inkscape:window-maximized="1" inkscape:current-layer="svg26" showgrid="false" />
<path id="polygon3" style="fill:url(#SVGID_1_)" d="M 95.840786 26.461147 L 102.03075 32.650681 L 75.251171 59.433839 L 69.058478 53.24158 L 95.840786 26.461147 z " transform="matrix(-0.7165703,0,0,0.71662047,78.289942,-13.517287)" /><path style="fill:url(#SVGID_2_);stroke-width:0.716595" d="M 6.6042492,6.8777316 C 8.2165324,5.2653355 9.6066787,5.4444906 9.6066787,5.4444906 L 21.157792,16.996413 c -0.680742,-0.150491 -1.877414,0.429972 -2.945104,1.49057 -1.060524,1.060598 -1.640946,2.257355 -1.490466,2.94531 L 5.1711086,9.8803713 c 0.00717,0 -0.1791426,-1.3830775 1.4331406,-3.0026397 z" id="path7" /><path style="fill:url(#SVGID_6_);stroke-width:0.251426" d="M 13.905512,3.769605 12.401986,2.2711078 c -0.08297,-0.08297 -0.226283,-0.015086 -0.213711,0.1030845 l 0.193597,1.7574657 c 0.0075,0.067885 -0.04023,0.1307414 -0.110627,0.1382842 l -2.152204,0.2564542 c -0.1257128,0.015086 -0.1533697,0.186055 -0.0352,0.2388544 l 2.242718,1.0031886 c 0.03269,0.015086 0.05783,0.045257 0.06789,0.080456 l 0.648678,2.2251176 c 0.03017,0.108113 0.175998,0.1231986 0.228797,0.025143 l 1.003189,-1.8228363 c 0.02263,-0.042742 0.0704,-0.067885 0.120684,-0.065371 l 1.925921,0.1558839 c 0.11817,0.010057 0.181027,-0.1332556 0.09806,-0.2137118 L 15.142527,4.9085635 c -0.03771,-0.0352 -0.04777,-0.093027 -0.02766,-0.1407984 L 15.791205,3.221497 C 15.836462,3.1158982 15.728349,3.0077851 15.62275,3.0580703 l -1.581468,0.7391916 c -0.04274,0.020114 -0.09806,0.010057 -0.13577,-0.027657 z" id="path20" /><path style="fill:url(#SVGID_7_);stroke-width:0.251426" d="m 8.4445458,14.942964 -1.1917579,0.550622 c -0.030171,0.01508 -0.065371,0.01006 -0.090513,-0.01006 L 5.9680025,14.580911 c -0.062856,-0.04777 -0.1483411,0.0025 -0.1433126,0.07794 l 0.1131416,1.483411 c 0.00251,0.03269 -0.012571,0.06537 -0.042742,0.08297 L 4.756131,16.929224 c -0.067885,0.04274 -0.050285,0.148341 0.030171,0.163426 L 6.2144,17.386818 c 0.0352,0.0075 0.062856,0.03269 0.070399,0.06789 l 0.3042251,1.345128 c 0.0176,0.08046 0.1257129,0.09554 0.165941,0.02263 L 7.3885578,17.66339 c 0.015085,-0.03017 0.047771,-0.04777 0.080456,-0.04777 l 1.4984973,0.04777 c 0.077942,0.0025 0.1206843,-0.088 0.072913,-0.148341 L 8.07495,16.361005 c -0.022628,-0.02514 -0.027657,-0.06034 -0.015086,-0.09303 l 0.50788,-1.211872 C 8.595401,14.983193 8.517459,14.907762 8.4445454,14.942962 Z" id="path22" /><path style="fill:url(#SVGID_8_);stroke-width:0.251426" d="M 3.5266589,1.9668827 1.4071402,1.0265505 C 1.3015414,0.97877964 1.2085139,1.0843784 1.2638275,1.1849487 l 1.0484452,1.9309495 c 0.025143,0.045257 0.020114,0.1005703 -0.012571,0.1357699 L 0.02932727,5.4541573 c -0.06788494,0.070399 -0.01005703,0.196112 0.09302752,0.2011405 L 2.9081517,5.1650177 c 0.042742,0.00251 0.08297,0.027657 0.1055988,0.067885 L 4.4795623,7.915615 C 4.534876,8.013671 4.6756744,8.003614 4.6983027,7.9005294 L 4.984928,5.2882163 C 4.994985,5.2429593 5.035213,5.2102743 5.082984,5.2052453 L 7.3835293,4.8306215 c 0.098056,-0.00754 0.1357699,-0.1257128 0.060342,-0.1986263 L 5.5204648,3.153612 C 5.492808,3.1259552 5.4777224,3.0882413 5.4827509,3.0505275 L 5.8272041,0.13901777 C 5.8372612,0.02839046 5.698977,-0.044523 5.6210351,0.03090471 L 3.654886,1.9467686 c -0.032685,0.030171 -0.082971,0.037714 -0.1282271,0.020114 z" id="path24" /><g id="g25" transform="matrix(-0.25142571,0,0,0.25142571,31.095488,-0.96222684)">
			<path style="fill:#fdd835" d="m 96.29,26.87 c -3.74,0.96 -7.53,1.79 -11.4,2.11 -3.87,0.35 -7.8,0.07 -11.62,-0.62 -3.82,-0.71 -7.57,-1.6 -11.35,-2.3 -3.78,-0.7 -7.58,-1.26 -11.4,-1.7 -1.91,-0.22 -3.83,-0.38 -5.74,-0.57 -1.87,-0.18 -3.72,-0.13 -5.48,0.28 -1.73,0.44 -3.34,1.27 -4.38,2.63 -1.05,1.34 -1.55,3.08 -1.55,4.87 -0.02,3.61 1.43,7.21 3.27,10.46 1.85,3.27 4.28,6.24 6.71,9.21 4.84,5.96 10.07,11.63 15.26,17.34 2.6,2.86 5.2,5.71 7.76,8.61 2.58,2.88 5.07,5.85 7.45,8.91 2.39,3.05 4.66,6.24 6.51,9.7 0.46,0.84 0.97,1.77 1.12,2.89 0.05,0.57 -0.01,1.2 -0.33,1.76 -0.32,0.56 -0.85,0.91 -1.36,1.14 -1.05,0.42 -2.09,0.45 -3.09,0.4 -1,-0.06 -1.98,-0.22 -2.94,-0.44 -3.82,-0.93 -7.39,-2.52 -10.83,-4.31 -1.72,-0.9 -3.4,-1.86 -5.05,-2.87 -1.64,-1.02 -3.25,-2.1 -4.83,-3.2 3.28,2.04 6.64,3.94 10.11,5.59 3.47,1.64 7.08,3.07 10.79,3.82 0.93,0.17 1.86,0.31 2.78,0.34 0.92,0.03 1.85,-0.05 2.59,-0.37 0.36,-0.17 0.66,-0.39 0.81,-0.69 0.15,-0.29 0.19,-0.66 0.15,-1.05 -0.12,-0.8 -0.55,-1.6 -1.04,-2.43 C 77.34,93.08 75.05,90 72.61,87.04 62.85,75.2 51.73,64.44 41.81,52.5 39.38,49.49 36.92,46.43 34.99,42.96 33.09,39.52 31.52,35.7 31.57,31.53 c 0.02,-2.06 0.62,-4.23 1.98,-5.93 1.35,-1.73 3.37,-2.73 5.36,-3.21 2.01,-0.44 4.07,-0.49 6.04,-0.26 1.92,0.24 3.85,0.44 5.77,0.71 3.84,0.54 7.66,1.2 11.45,1.99 3.79,0.8 7.54,1.76 11.29,2.57 3.74,0.82 7.56,1.25 11.4,1.05 3.83,-0.18 7.64,-0.83 11.43,-1.58 z" id="path25" />
		</g><path style="fill:url(#SVGID_9_);stroke-width:0.251426" d="m 14.053853,7.9985855 c 2.82854,0.6587353 6.074446,-1.2571286 9.07144,-0.9202181 1.143987,0.1508554 1.614153,1.5186113 0.515423,3.6859006 -2.157233,3.713558 -5.305083,5.90599 -6.46667,7.266203 C 18.7354,17.15551 21.943592,14.849936 24.173738,12.680132 27.530271,9.4618831 26.90925,5.4390717 23.7966,5.451643 22.753183,5.3510727 20.734234,5.8539242 19.889444,6.1631778 19.057225,6.497574 16.223657,7.7320742 14.053853,7.9985855 Z" id="path26" />
<g id="Layer_2" transform="matrix(-0.25142571,0,0,0.25142571,31.095488,-0.96222684)">
</g>
</svg>
