<?xml version="1.0" encoding="UTF-8" standalone="no"?>
<!-- Generator: Adobe Illustrator 25.2.3, SVG Export Plug-In . SVG Version: 6.00 Build 0)  -->

<svg version="1.1" id="Layer_2" x="0px" y="0px" viewBox="0 0 128 128" style="enable-background:new 0 0 128 128;" xml:space="preserve" sodipodi:docname="hiv-ribbon.svg" inkscape:version="1.2.2 (b0a8486541, 2022-12-01)" xmlns:inkscape="http://www.inkscape.org/namespaces/inkscape" xmlns:sodipodi="http://sodipodi.sourceforge.net/DTD/sodipodi-0.dtd" xmlns="http://www.w3.org/2000/svg" xmlns:svg="http://www.w3.org/2000/svg"><defs id="defs11" /><sodipodi:namedview id="namedview9" pagecolor="#ffffff" bordercolor="#666666" borderopacity="1.0" inkscape:showpageshadow="2" inkscape:pageopacity="0.0" inkscape:pagecheckerboard="0" inkscape:deskcolor="#d1d1d1" showgrid="false" inkscape:zoom="3.6875" inkscape:cx="10.711864" inkscape:cy="62.101695" inkscape:window-width="1920" inkscape:window-height="1161" inkscape:window-x="0" inkscape:window-y="0" inkscape:window-maximized="1" inkscape:current-layer="Layer_2" />
<path style="fill:#a30000;fill-opacity:1" d="M43.34,24.87l5.09,6.85c0,0,4.57-5.21,16-5.46c10.67-0.24,15.37,5.71,15.37,5.71l7.11-13.72  c0,0-2.85-9.17-12-13.27c-2.94-1.32-6.65-2.09-11.2-1.94c-5.42,0.18-9.13,1.47-12.28,2.89C45.01,8.83,43.34,24.87,43.34,24.87z" id="path2" />
<path style="fill:#c50000;fill-opacity:1" d="M16.54,106.02c-0.15,1.48,2.46,2.62,7.53,9.01s9.01,10.81,9.82,10.97s21.94-13.1,42.24-40.61  S98.67,30.6,93.83,21.54C87.6,9.91,75.32,5.16,75.32,5.16s11.28,25.91-9.33,55.51C44.21,91.94,16.71,104.39,16.54,106.02z" id="path4" />
<path style="fill:#fe0000;fill-opacity:1" d="M50.96,6.16c0,0-14.79,9.3-18.05,20.12c-3.91,12.97,0.49,33.24,17.85,57.14s41.42,40.44,42.57,40.61  c1.15,0.16,7.53-6.71,10.48-10.48c2.95-3.77,7.04-8.68,6.88-9.33S82.97,88.11,71.72,74.59C58.79,59.03,51.26,42.26,49.78,31.36  C47.49,14.5,50.96,6.16,50.96,6.16z" id="path6" />
</svg>
