<?xml version="1.0" encoding="UTF-8" standalone="no"?>
<!-- Generator: Adobe Illustrator 24.0.3, SVG Export Plug-In . SVG Version: 6.00 Build 0)  -->

<svg version="1.1" id="Layer_2" x="0px" y="0px" viewBox="0 0 86.283615 75.801155" xml:space="preserve" sodipodi:docname="intestines.svg" width="86.283615" height="75.801155" inkscape:version="1.2.2 (b0a8486541, 2022-12-01)" xmlns:inkscape="http://www.inkscape.org/namespaces/inkscape" xmlns:sodipodi="http://sodipodi.sourceforge.net/DTD/sodipodi-0.dtd" xmlns="http://www.w3.org/2000/svg" xmlns:svg="http://www.w3.org/2000/svg"><defs id="defs8889">
	
	
	
	
	
	
	
	
	
	
	
</defs><sodipodi:namedview id="namedview8887" pagecolor="#ffffff" bordercolor="#666666" borderopacity="1.0" inkscape:showpageshadow="2" inkscape:pageopacity="0.0" inkscape:pagecheckerboard="0" inkscape:deskcolor="#d1d1d1" showgrid="false" inkscape:zoom="3.6875" inkscape:cx="39.322034" inkscape:cy="26.847458" inkscape:window-width="1920" inkscape:window-height="1161" inkscape:window-x="0" inkscape:window-y="0" inkscape:window-maximized="1" inkscape:current-layer="Layer_2" />
<path style="fill:#fea8a7;fill-opacity:1" d="m 68.652069,55.16241 c -1.25127,-8.34618 -2.800653,-13.093228 -17.0739,-14.266314 -6.54113,-0.12608 -13.558924,-1.169848 -19.975044,-1.947701 -6.416119,-0.777854 -16.499803,-2.809931 -9.66275,-6.153858 6.837053,-3.343928 32.234359,6.062927 52.677884,5.156118 C 93.219393,37.119993 85.183373,18.731977 80.202193,8.012151 76.435407,-0.09605096 71.57495,-0.35834296 67.822492,0.16521304 64.070035,0.68876904 59.078445,3.005189 57.523857,8.612876 55.969269,14.220562 85.844833,24.856525 31.941286,17.730236 16.404505,15.484385 1.2003266,18.346897 0.06918659,33.706595 -1.0619544,49.066293 11.976287,53.911558 25.239513,55.396561 c 13.263226,1.485003 26.917162,-1.420729 27.569264,3.223317 0.811548,5.724359 -18.339374,-0.45275 -28.449625,4.735595 -10.283357,5.266655 -16.6058904,8.282905 -10.216911,11.460771 6.388979,3.177868 5.693065,-2.148375 13.446151,-4.492325 13.622357,-4.12105 24.729504,4.97054 34.901577,-1.464075 4.245541,-2.721834 7.040463,-7.849642 6.1621,-13.697434 z" id="path8852" sodipodi:nodetypes="cczzcczzczzcczccc" /><path id="path8852-2" style="fill:#ec7fac;fill-opacity:1" d="m 81.150673,10.116543 c -0.205,1.155902 0.0607,5.28988 0.0137,7.607422 -0.047,2.317541 0.0846,6.575861 -0.97358,9.553232 -1.05814,2.977369 -2.33244,5.426447 -5.595649,7.097978 -3.26321,1.671531 -10.263003,1.087494 -13.816373,1.039485 -3.55337,-0.04801 -16.330745,-1.66011 -24.741351,-2.249289 10.925507,1.851604 25.72773,5.355245 38.580078,4.785157 17.471415,-0.780217 11.457475,-16.977776 6.533175,-27.833985 z M 5.6194206,22.063809 C 2.4951306,24.685395 0.45498259,28.460244 0.06863959,33.706387 -1.0624984,49.06604 11.975375,53.910843 25.238562,55.39584 c 3.393947,0.38 6.796762,0.469425 10.017578,0.47461 -2.246282,-0.147227 -3.658293,0.0094 -5.521485,-0.451172 C 27.093943,54.960732 21.850004,54.003046 19.42953,52.764195 17.009055,51.525344 15.189516,50.777231 12.4002,48.853683 9.6108846,46.930136 7.3835746,43.480141 5.8381706,40.261074 c -1.545403,-3.219066 -2.173156,-6.61672 -1.992187,-9.529296 0.180969,-2.912575 0.489471,-5.836763 1.773437,-8.667969 z M 67.144812,48.741543 c -0.09183,4.104871 -0.167957,6.217011 -1.920592,10.851149 -1.752635,4.634138 -3.291196,5.480074 -5.443236,7.136239 -2.15204,1.656164 -7.028797,1.931215 -9.181218,2.017479 -2.152421,0.08626 -6.567834,-0.682625 -8.972532,-0.852523 -2.404698,-0.169898 -4.645298,0.313679 -6.753907,1.322266 10.399218,-0.184694 19.32001,4.89313 27.617188,-0.355469 4.245529,-2.721825 7.040469,-7.851445 6.162109,-13.699219 -0.367851,-2.453631 -0.772677,-4.587849 -1.507812,-6.419922 z" sodipodi:nodetypes="csszzccccssccsssscczzzzcccc" />





</svg>
