<?xml version="1.0" encoding="UTF-8" standalone="no"?>
<!-- Generator: Adobe Illustrator 24.0.3, SVG Export Plug-In . SVG Version: 6.00 Build 0)  -->

<svg
   version="1.1"
   id="Layer_1"
   x="0px"
   y="0px"
   viewBox="0 0 128 128"
   style="enable-background:new 0 0 128 128;"
   xml:space="preserve"
   sodipodi:docname="obese.svg"
   inkscape:version="1.3 (0e150ed6c4, 2023-07-21)"
   xmlns:inkscape="http://www.inkscape.org/namespaces/inkscape"
   xmlns:sodipodi="http://sodipodi.sourceforge.net/DTD/sodipodi-0.dtd"
   xmlns:xlink="http://www.w3.org/1999/xlink"
   xmlns="http://www.w3.org/2000/svg"
   xmlns:svg="http://www.w3.org/2000/svg"><defs
   id="defs137"><linearGradient
     inkscape:collect="always"
     xlink:href="#arm_1_"
     id="linearGradient1100"
     gradientUnits="userSpaceOnUse"
     gradientTransform="matrix(-1.1705645,-0.29892814,-0.17170207,0.99539295,133.66503,29.266714)"
     x1="82.2091"
     y1="49.9331"
     x2="82.2091"
     y2="88.4592" /><linearGradient
     inkscape:collect="always"
     xlink:href="#arm_1_"
     id="linearGradient1192"
     gradientUnits="userSpaceOnUse"
     gradientTransform="matrix(1.1705645,-0.29892814,0.17170207,0.99539295,-5.7284864,29.266714)"
     x1="82.2091"
     y1="49.9331"
     x2="82.2091"
     y2="88.4592" /></defs><sodipodi:namedview
   id="namedview135"
   pagecolor="#ffffff"
   bordercolor="#666666"
   borderopacity="1.0"
   inkscape:showpageshadow="2"
   inkscape:pageopacity="0.0"
   inkscape:pagecheckerboard="0"
   inkscape:deskcolor="#d1d1d1"
   showgrid="false"
   inkscape:zoom="7.1754045"
   inkscape:cx="52.19218"
   inkscape:cy="77.486921"
   inkscape:window-width="970"
   inkscape:window-height="1034"
   inkscape:window-x="950"
   inkscape:window-y="21"
   inkscape:window-maximized="1"
   inkscape:current-layer="Layer_1" />&#10;<linearGradient
   id="arm_1_"
   gradientUnits="userSpaceOnUse"
   x1="82.2091"
   y1="49.9331"
   x2="82.2091"
   y2="88.4592"
   gradientTransform="rotate(-13.985731,94.755572,30.063633)">&#10;	<stop
   offset="0.5993"
   style="stop-color:#FFCA28"
   id="stop2" />&#10;	<stop
   offset="1"
   style="stop-color:#FFB300"
   id="stop4" />&#10;</linearGradient>&#10;&#10;<linearGradient
   id="arm_4_"
   gradientUnits="userSpaceOnUse"
   x1="45.7918"
   y1="49.9331"
   x2="45.7918"
   y2="88.4592"
   gradientTransform="translate(-5.7167567,2)">&#10;	<stop
   offset="0.5993"
   style="stop-color:#FFCA28"
   id="stop8" />&#10;	<stop
   offset="1"
   style="stop-color:#FFB300"
   id="stop10" />&#10;</linearGradient>&#10;&#10;<path
   style="fill:#7c7c7c;stroke-width:0.999999"
   d="M 74.707129,121.41 66.501516,86.35 c -0.238998,-0.76 -1.29059,-1.27 -2.485583,-1.27 -1.194992,0 -2.246586,0.51 -2.469651,1.22 l -8.237478,35.11 -9.878602,0.24 -1.641122,-46.03 h 44.42184 l -1.625189,46.03 z"
   id="path14" /><ellipse
   style="fill:#ff2a2a;fill-opacity:1;stroke-width:4.65598;stroke-linecap:round;stroke-linejoin:round"
   id="path591"
   cx="64.014565"
   cy="74.585518"
   rx="40.012547"
   ry="24.028946" />&#10;<g
   id="shoes_1_">&#10;	<path
   style="fill:#424242;stroke-width:1"
   d="m 80.008326,123.92984 h 5.719708 c 1.053969,-0.0257 1.812312,-1.23392 1.503834,-2.28789 -0.951143,-3.20046 -3.84313,-5.55261 -7.223542,-5.55261 -3.444677,0 -6.375224,2.44212 -7.274954,5.73256 -0.282772,1.05397 0.501278,2.09508 1.555247,2.09508 h 5.719707 z"
   id="path16" />&#10;	<path
   style="fill:#424242;stroke-width:1"
   d="m 48.614033,123.94715 h -5.576192 c -1.027523,-0.0251 -1.766838,-1.20295 -1.4661,-2.23048 0.927277,-3.12016 3.7467,-5.41329 7.042292,-5.41329 3.358245,0 6.215261,2.38085 7.092414,5.58873 0.275677,1.02752 -0.4887,2.04251 -1.516223,2.04251 h -5.576191 z"
   id="path18" />&#10;</g>&#10;<linearGradient
   id="shirt_1_"
   gradientUnits="userSpaceOnUse"
   x1="64.015"
   y1="41.571"
   x2="64.015"
   y2="74.9683"
   gradientTransform="matrix(1.2746692,0,0,1,-17.582951,2)">&#10;	<stop
   offset="0.3661"
   style="stop-color:#F78C1F"
   id="stop21" />&#10;	<stop
   offset="0.6716"
   style="stop-color:#F47F12"
   id="stop23" />&#10;	<stop
   offset="0.9886"
   style="stop-color:#EF6C00"
   id="stop25" />&#10;</linearGradient>&#10;&#10;&#10;&#10;&#10;&#10;&#10;&#10;&#10;&#10;&#10;<path
   style="fill:#7c7c7c;fill-opacity:1;stroke-width:4.6483;stroke-linecap:round;stroke-linejoin:round"
   id="ellipse540"
   sodipodi:type="arc"
   sodipodi:cx="64.018913"
   sodipodi:cy="74.585518"
   sodipodi:rx="39.88063"
   sodipodi:ry="24.028946"
   sodipodi:start="0.29917024"
   sodipodi:end="2.844612"
   sodipodi:open="true"
   sodipodi:arc-type="arc"
   d="M 102.1281,81.667507 A 39.88063,24.028946 0 0 1 63.975252,98.614449 39.88063,24.028946 0 0 1 25.884081,81.617213" /><path
   id="path1098"
   style="fill:url(#linearGradient1100);stroke-width:1"
   d="m 17.080094,91.862027 c 0.210695,0.05381 0.406571,0.05186 0.562487,-0.0019 0.689085,-0.239726 0.963197,-2.46645 1.053422,-3.202053 0.124876,-1.007345 1.003293,-2.061291 1.746694,-2.474206 0.377551,-0.204965 0.754475,-0.264595 1.105644,-0.174913 l 0.04683,0.01196 0.127049,0.04283 0.145304,0.07867 c 0.758536,0.349566 0.627716,1.178756 0.500288,1.988019 -0.08445,0.560409 -0.179197,1.180542 -0.0595,1.761907 0.06554,0.32851 0.496938,0.449067 0.578878,0.469994 0.515047,0.131526 1.124997,-0.0037 1.254862,-0.614862 0.01372,-0.07963 0.05431,-0.173194 0.126937,-0.310527 0.141956,-0.327497 0.452979,-0.996303 0.611708,-2.483458 0.185138,-1.781783 0.284445,-3.845299 -0.375566,-5.687024 l -0.08444,-0.219018 9.588076,-17.608831 3.637781,-6.2106 c -0.820949,-0.625343 -2.828842,-2.021454 -4.994385,-2.574471 -2.516713,-0.642695 -4.480006,0.04067 -5.847895,2.019251 -2.233506,3.170894 -3.97539,7.246764 -5.489429,12.835756 -1.168623,4.295012 -2.491121,7.781692 -2.954836,8.557019 -0.136574,0.224933 -0.411432,0.684755 -0.411432,0.684755 -0.536296,0.912678 -0.74201,1.255058 -2.717355,3.566955 -1.041513,1.22014 -0.972707,2.734216 -0.884879,4.49218 0.03256,0.590309 0.05352,1.177616 0.04758,1.778857 0.0043,1.320947 1.527305,2.977738 2.68616,3.273677 z" /><path
   id="path1190"
   style="fill:url(#linearGradient1192);stroke-width:1"
   d="m 110.85644,91.862027 c -0.21069,0.05381 -0.40657,0.05186 -0.56248,-0.0019 -0.68909,-0.239726 -0.9632,-2.46645 -1.05342,-3.202053 -0.12488,-1.007345 -1.0033,-2.061291 -1.7467,-2.474206 -0.37755,-0.204965 -0.75447,-0.264595 -1.10564,-0.174913 l -0.0468,0.01196 -0.12705,0.04283 -0.14531,0.07867 c -0.75853,0.349566 -0.62771,1.178756 -0.50028,1.988019 0.0845,0.560409 0.17919,1.180542 0.0595,1.761907 -0.0655,0.32851 -0.49694,0.449067 -0.57888,0.469994 -0.51505,0.131526 -1.125,-0.0037 -1.25486,-0.614862 -0.0137,-0.07963 -0.0543,-0.173194 -0.12694,-0.310527 -0.14196,-0.327497 -0.45298,-0.996303 -0.61171,-2.483458 -0.18514,-1.781783 -0.28444,-3.845299 0.37557,-5.687024 l 0.0844,-0.219018 -9.588078,-17.608831 -3.637781,-6.2106 c 0.820949,-0.625343 2.828842,-2.021454 4.994385,-2.574471 2.516713,-0.642695 4.480006,0.04067 5.847894,2.019251 2.23351,3.170894 3.97539,7.246764 5.48943,12.835756 1.16862,4.295012 2.49112,7.781692 2.95484,8.557019 0.13657,0.224933 0.41143,0.684755 0.41143,0.684755 0.53629,0.912678 0.74201,1.255058 2.71735,3.566955 1.04152,1.22014 0.97271,2.734216 0.88488,4.49218 -0.0326,0.590309 -0.0535,1.177616 -0.0476,1.778857 -0.004,1.320947 -1.5273,2.977738 -2.68616,3.273677 z" /><path
   id="shirt_2_"
   style="fill:#ff2a2a;fill-opacity:1;stroke-width:1.18319"
   d="M 81.244018,44.87 C 76.943455,44.23 71.2867,43.81 64.220215,43.81 h -0.142763 -0.142764 c -7.066483,0 -12.812464,0.42 -17.077337,1.06 -13.472715,2.01 -16.881046,6.56 -20.896093,12.65 L 51.743609,65.121637 74.687163,64.670646 102.06873,57.52 C 98.053686,51.43 94.716734,46.88 81.244018,44.87 Z"
   sodipodi:nodetypes="cscscccccc" /><g
   id="hairGroup_7_">&#10;	<path
   id="hair_8_"
   style="fill:#543930;"
   d="M79.09,37.01c-0.54-0.98,0.15-1.98,1.32-3.22c1.86-1.96,3.89-6.51,2.01-11.14   c0.01-0.03-0.37-0.81-0.36-0.83l-0.78-0.04c-0.25-0.04-8.76-0.05-17.28-0.05c-8.52,0-17.03,0.02-17.28,0.05   c0,0-1.15,0.84-1.14,0.87c-1.88,4.62,0.15,9.17,2.01,11.14c1.17,1.24,1.86,2.24,1.32,3.22c-0.52,0.95-2.08,1.09-2.08,1.09   s0.36,0.98,1.22,1.5c0.8,0.49,1.78,0.6,2.47,0.62c0,0,2.66,3.68,9.61,3.68l3.87,0l3.87,0c6.95,0,9.61-3.68,9.61-3.68   c0.68-0.02,1.66-0.13,2.47-0.62c0.87-0.53,1.22-1.5,1.22-1.5S79.61,37.96,79.09,37.01z" />&#10;	<g
   id="hairHighlights_1_">&#10;		&#10;			<radialGradient
   id="SVGID_1_"
   cx="52.8516"
   cy="86.9616"
   r="10.1246"
   gradientTransform="matrix(1 0 0 0.4912 17.4531 -4.7131)"
   gradientUnits="userSpaceOnUse">&#10;			<stop
   offset="0.7275"
   style="stop-color:#6D4C41;stop-opacity:0"
   id="stop30" />&#10;			<stop
   offset="1"
   style="stop-color:#6D4C41"
   id="stop32" />&#10;		</radialGradient>&#10;		<path
   style="fill:url(#SVGID_1_);"
   d="M64,43.9v-4.08l12.35-0.98l1.12,1.38c0,0-2.66,3.68-9.61,3.68L64,43.9z"
   id="path35" />&#10;		&#10;			<radialGradient
   id="SVGID_2_"
   cx="96.8326"
   cy="108.0249"
   r="2.9921"
   gradientTransform="matrix(-0.9057 0.4238 -0.3144 -0.6719 201.9439 68.0395)"
   gradientUnits="userSpaceOnUse">&#10;			<stop
   offset="0.6628"
   style="stop-color:#6D4C41"
   id="stop37" />&#10;			<stop
   offset="1"
   style="stop-color:#6D4C41;stop-opacity:0"
   id="stop39" />&#10;		</radialGradient>&#10;		<path
   style="fill:url(#SVGID_2_);"
   d="M77.44,38.44c-1.85-2.81,2.25-3.86,2.25-3.86s0,0,0,0c-0.71,0.89-1.04,1.66-0.62,2.42    c0.52,0.95,2.08,1.09,2.08,1.09S79.04,39.99,77.44,38.44z"
   id="path42" />&#10;		&#10;			<radialGradient
   id="SVGID_3_"
   cx="82.2932"
   cy="64.917"
   r="13.1424"
   gradientTransform="matrix(-0.0746 -0.9972 0.8311 -0.0622 24.7108 114.1347)"
   gradientUnits="userSpaceOnUse">&#10;			<stop
   offset="0.7247"
   style="stop-color:#6D4C41;stop-opacity:0"
   id="stop44" />&#10;			<stop
   offset="1"
   style="stop-color:#6D4C41"
   id="stop46" />&#10;		</radialGradient>&#10;		<path
   style="fill:url(#SVGID_3_);"
   d="M82.43,22.65c1.84,4.48-0.1,9.08-1.91,11.03c-0.25,0.27-1.3,1.3-1.54,2.13    c0,0-4.12-5.75-5.36-9.13c-0.25-0.68-0.47-1.39-0.5-2.11c-0.02-0.54,0.06-1.19,0.38-1.65c0.38-0.57,8.72-0.73,8.72-0.73    C82.21,22.18,82.43,22.65,82.43,22.65z"
   id="path49" />&#10;		&#10;			<radialGradient
   id="SVGID_4_"
   cx="82.8879"
   cy="133.1962"
   r="13.1424"
   gradientTransform="matrix(0.0746 -0.9972 -0.8311 -0.0622 160.0015 118.9747)"
   gradientUnits="userSpaceOnUse">&#10;			<stop
   offset="0.7247"
   style="stop-color:#6D4C41;stop-opacity:0"
   id="stop51" />&#10;			<stop
   offset="1"
   style="stop-color:#6D4C41"
   id="stop53" />&#10;		</radialGradient>&#10;		<path
   style="fill:url(#SVGID_4_);"
   d="M45.58,22.65c-1.84,4.48,0.1,9.08,1.91,11.03c0.25,0.27,1.3,1.3,1.54,2.13    c0,0,4.12-5.75,5.36-9.13c0.25-0.68,0.47-1.39,0.51-2.11c0.02-0.54-0.06-1.19-0.38-1.65c-0.38-0.57-0.83-0.42-1.49-0.42    c-1.25,0-6.69-0.32-7.12-0.32C45.92,22.18,45.58,22.65,45.58,22.65z"
   id="path56" />&#10;		&#10;			<radialGradient
   id="SVGID_5_"
   cx="114.7697"
   cy="86.9616"
   r="10.1246"
   gradientTransform="matrix(-1 0 0 0.4912 172.4749 -4.7131)"
   gradientUnits="userSpaceOnUse">&#10;			<stop
   offset="0.7275"
   style="stop-color:#6D4C41;stop-opacity:0"
   id="stop58" />&#10;			<stop
   offset="1"
   style="stop-color:#6D4C41"
   id="stop60" />&#10;		</radialGradient>&#10;		<path
   style="fill:url(#SVGID_5_);"
   d="M64.01,43.9v-4.08l-12.35-0.98l-1.12,1.38c0,0,2.66,3.68,9.61,3.68L64.01,43.9z"
   id="path63" />&#10;		&#10;			<radialGradient
   id="SVGID_6_"
   cx="49.9976"
   cy="75.4224"
   r="2.9921"
   gradientTransform="matrix(0.9057 0.4238 0.3144 -0.6719 -21.2655 65.9825)"
   gradientUnits="userSpaceOnUse">&#10;			<stop
   offset="0.6628"
   style="stop-color:#6D4C41"
   id="stop65" />&#10;			<stop
   offset="1"
   style="stop-color:#6D4C41;stop-opacity:0"
   id="stop67" />&#10;		</radialGradient>&#10;		<path
   style="fill:url(#SVGID_6_);"
   d="M50.57,38.44c1.85-2.81-2.25-3.86-2.25-3.86s0,0,0,0c0.71,0.89,1.04,1.66,0.62,2.42    c-0.52,0.95-2.08,1.09-2.08,1.09S48.97,39.99,50.57,38.44z"
   id="path70" />&#10;	</g>&#10;</g><path
   id="neck_4_"
   style="fill:#E59600;"
   d="M64,40.72h-5v5.3c0,2.4,2.03,4.34,4.54,4.34h0.91c2.51,0,4.54-1.94,4.54-4.34v-5.3H64z" /><path
   id="ears"
   style="fill:#E59600;"
   d="M75.97,24.34h-3.23H55.26h-3.23c-2.58,0-4.69,2.25-4.69,5s2.11,5,4.69,5h3.23h17.49h3.23  c2.58,0,4.69-2.25,4.69-5S78.56,24.34,75.97,24.34z" /><path
   id="head"
   style="fill:#FFCA28;"
   d="M64,6.66L64,6.66L64,6.66c-7.62,0-14.69,8.15-14.69,19.89c0,11.67,7.28,17.44,14.69,17.44  s14.69-5.77,14.69-17.44C78.69,14.81,71.62,6.66,64,6.66z" /><g
   id="hairGroup_6_">&#10;	<path
   id="hair_7_"
   style="fill:#543930;"
   d="M81.4,13.34c-1.06-1.6-3.42-3.74-5.54-3.88c-0.34-2.04-2.52-3.77-4.64-4.44   c-5.72-1.81-9.44,0.22-11.44,1.31c-0.42,0.23-3.1,1.72-4.98,0.65c-1.18-0.67-1.15-2.48-1.15-2.48s-3.69,1.4-2.42,5.32   c-1.26,0.05-2.93,0.59-3.81,2.36c-1.05,2.12-0.67,3.89-0.37,4.74c-1.09,0.92-2.46,2.89-1.52,5.45c0.71,1.92,3.53,2.81,3.53,2.81   c-0.2,3.46,0.45,5.59,0.79,6.46c0.06,0.15,0.27,0.14,0.31-0.02c0.43-1.71,1.89-7.69,1.74-8.74c0,0,4.9-0.97,9.58-4.42   c0.95-0.7,1.98-1.3,3.08-1.74c5.88-2.34,7.11,1.65,7.11,1.65s4.07-0.78,5.3,4.87c0.46,2.12,0.78,5.51,1.04,7.89   c0.02,0.17,0.25,0.2,0.31,0.05c0.41-0.94,1.23-2.81,1.43-4.72c0.07-0.67,1.88-1.56,2.65-4.44C83.44,18.19,82.17,14.5,81.4,13.34z" />&#10;	<g
   id="hairHighlights">&#10;		&#10;			<radialGradient
   id="SVGID_7_"
   cx="90.6195"
   cy="69.8242"
   r="15.405"
   gradientTransform="matrix(0.3076 0.9515 0.706 -0.2282 -5.3028 -49.1923)"
   gradientUnits="userSpaceOnUse">&#10;			<stop
   offset="0.6985"
   style="stop-color:#6D4C41;stop-opacity:0"
   id="stop78" />&#10;			<stop
   offset="1"
   style="stop-color:#6D4C41"
   id="stop80" />&#10;		</radialGradient>&#10;		<path
   style="fill:url(#SVGID_7_);"
   d="M79.74,26.48c0.07-0.67,1.88-1.56,2.65-4.44c0.08-0.31,0.15-0.62,0.22-0.93    c0.63-3.5-0.5-6.71-1.21-7.77c-0.98-1.48-3.07-3.41-5.06-3.81c-0.17-0.02-0.34-0.04-0.5-0.05c0,0,0.14,0.93-0.23,1.67    c-0.49,0.96-1.47,1.19-1.47,1.19C79.31,17.52,78.94,21.85,79.74,26.48z"
   id="path83" />&#10;		&#10;			<radialGradient
   id="SVGID_8_"
   cx="59.7551"
   cy="112.0996"
   r="4.039"
   gradientTransform="matrix(0.8813 0.4726 0.5603 -1.045 -58.6205 93.2087)"
   gradientUnits="userSpaceOnUse">&#10;			<stop
   offset="0.58"
   style="stop-color:#6D4C41"
   id="stop85" />&#10;			<stop
   offset="1"
   style="stop-color:#6D4C41;stop-opacity:0"
   id="stop87" />&#10;		</radialGradient>&#10;		<path
   style="fill:url(#SVGID_8_);"
   d="M61.03,5.68c-0.47,0.23-0.89,0.46-1.25,0.65c-0.42,0.23-3.1,1.72-4.98,0.65    c-1.16-0.66-1.15-2.41-1.15-2.47c-0.53,0.68-2.14,5.53,2.56,5.85c2.03,0.14,3.28-1.63,4.02-3.13C60.5,6.69,60.92,5.9,61.03,5.68z"
   id="path90" />&#10;		&#10;			<radialGradient
   id="SVGID_9_"
   cx="165.3682"
   cy="98.2311"
   r="12.4169"
   gradientTransform="matrix(-0.9378 -0.3944 -0.2182 0.5285 242.3954 24.9435)"
   gradientUnits="userSpaceOnUse">&#10;			<stop
   offset="0.6985"
   style="stop-color:#6D4C41;stop-opacity:0"
   id="stop92" />&#10;			<stop
   offset="1"
   style="stop-color:#6D4C41"
   id="stop94" />&#10;		</radialGradient>&#10;		<path
   style="fill:url(#SVGID_9_);"
   d="M70.63,4.85c3.17,0.86,4.71,2.47,5.22,4.62c0.15,0.63,0.33,6.52-10.91-0.17    c-4.18-2.49-3.04-4.05-2.55-4.22C64.31,4.38,67.09,3.89,70.63,4.85z"
   id="path97" />&#10;		&#10;			<radialGradient
   id="SVGID_10_"
   cx="55.2283"
   cy="119.8296"
   r="3.7074"
   gradientTransform="matrix(1 0 0 -1.2233 0 154.5756)"
   gradientUnits="userSpaceOnUse">&#10;			<stop
   offset="0.7016"
   style="stop-color:#6D4C41;stop-opacity:0"
   id="stop99" />&#10;			<stop
   offset="1"
   style="stop-color:#6D4C41"
   id="stop101" />&#10;		</radialGradient>&#10;		<path
   style="fill:url(#SVGID_10_);"
   d="M53.63,4.51c-0.01,0-0.01,0.01-0.03,0.01c0,0,0,0,0,0c-0.4,0.17-3.56,1.63-2.38,5.3    l3.37,0.54c-2.98-3.02-0.94-5.86-0.94-5.86S53.64,4.51,53.63,4.51z"
   id="path104" />&#10;		&#10;			<radialGradient
   id="SVGID_11_"
   cx="110.9075"
   cy="119.3349"
   r="6.9533"
   gradientTransform="matrix(-0.9657 -0.2598 -0.2432 0.9037 190.8405 -64.4947)"
   gradientUnits="userSpaceOnUse">&#10;			<stop
   offset="0.6605"
   style="stop-color:#6D4C41;stop-opacity:0"
   id="stop106" />&#10;			<stop
   offset="1"
   style="stop-color:#6D4C41"
   id="stop108" />&#10;		</radialGradient>&#10;		<path
   style="fill:url(#SVGID_11_);"
   d="M53.3,10.15l-2.08-0.34c-0.08,0-0.36,0.02-0.51,0.05c-1.17,0.16-2.55,0.77-3.3,2.32    c-0.8,1.67-0.78,3.1-0.56,4.06c0.06,0.32,0.19,0.68,0.19,0.68s1.03-0.98,3.48-1.04L53.3,10.15z"
   id="path111" />&#10;		&#10;			<radialGradient
   id="SVGID_12_"
   cx="53.1987"
   cy="103.6993"
   r="7.3001"
   gradientTransform="matrix(0.9907 0.1363 0.1915 -1.3921 -19.4904 158.3543)"
   gradientUnits="userSpaceOnUse">&#10;			<stop
   offset="0.5981"
   style="stop-color:#6D4C41;stop-opacity:0"
   id="stop113" />&#10;			<stop
   offset="1"
   style="stop-color:#6D4C41"
   id="stop115" />&#10;		</radialGradient>&#10;		<path
   style="fill:url(#SVGID_12_);"
   d="M46.95,17c-1.02,0.91-2.4,2.94-1.39,5.45c0.77,1.9,3.5,2.72,3.5,2.72    c0,0.01,0.55,0.17,0.83,0.17l0.64-9.47c-1.31,0-2.57,0.39-3.38,0.96C47.15,16.85,46.94,16.99,46.95,17z"
   id="path118" />&#10;	</g>&#10;</g><path
   id="mouth_4_"
   style="fill:#795548;"
   d="M67.69,35.99c-1.4,0.83-5.97,0.83-7.37,0c-0.8-0.48-1.62,0.25-1.29,0.98  c0.33,0.72,2.82,2.38,4.98,2.38c2.16,0,4.62-1.66,4.95-2.38C69.3,36.24,68.49,35.51,67.69,35.99z" /><path
   id="nose_4_"
   style="fill:#E59600;"
   d="M65.69,32.4c-0.05-0.02-0.09-0.03-0.14-0.04h-3.1c-0.05,0.01-0.1,0.02-0.14,0.04  c-0.28,0.11-0.44,0.4-0.3,0.72S62.76,34.3,64,34.3c1.24,0,1.86-0.87,1.99-1.18C66.13,32.81,65.97,32.52,65.69,32.4z" /><g
   id="eyes_4_">&#10;	<ellipse
   style="fill:#404040;"
   cx="56.8"
   cy="28.33"
   rx="2.16"
   ry="2.24"
   id="ellipse124" />&#10;	<ellipse
   style="fill:#404040;"
   cx="71.2"
   cy="28.33"
   rx="2.16"
   ry="2.24"
   id="ellipse126" />&#10;</g><g
   id="eyebrows_4_">&#10;	<path
   style="fill:#6D4C41;"
   d="M68,24.32c0.41-0.54,1.36-1.34,3.21-1.34s2.8,0.79,3.21,1.34c0.18,0.24,0.14,0.52,0.01,0.69   c-0.12,0.16-0.46,0.3-0.84,0.17c-0.38-0.13-1.13-0.51-2.37-0.52c-1.25,0.01-1.99,0.39-2.37,0.52c-0.38,0.13-0.73-0.01-0.84-0.17   C67.86,24.83,67.82,24.56,68,24.32z"
   id="path129" />&#10;	<path
   style="fill:#6D4C41;"
   d="M53.59,24.32c0.41-0.54,1.36-1.34,3.21-1.34s2.8,0.79,3.21,1.34c0.18,0.24,0.14,0.52,0.01,0.69   c-0.12,0.16-0.46,0.3-0.84,0.17c-0.38-0.13-1.13-0.51-2.37-0.52c-1.25,0.01-1.99,0.39-2.37,0.52c-0.38,0.13-0.73-0.01-0.84-0.17   C53.45,24.83,53.41,24.56,53.59,24.32z"
   id="path131" />&#10;</g></svg>
