<?xml version="1.0" encoding="UTF-8" standalone="no"?>
<!-- Generator: Adobe Illustrator 25.2.3, SVG Export Plug-In . SVG Version: 6.00 Build 0)  -->

<svg
   version="1.1"
   id="Layer_1"
   x="0px"
   y="0px"
   viewBox="0 0 128 128"
   style="enable-background:new 0 0 128 128;"
   xml:space="preserve"
   sodipodi:docname="other-religions.svg"
   inkscape:version="1.3 (0e150ed6c4, 2023-07-21)"
   xmlns:inkscape="http://www.inkscape.org/namespaces/inkscape"
   xmlns:sodipodi="http://sodipodi.sourceforge.net/DTD/sodipodi-0.dtd"
   xmlns="http://www.w3.org/2000/svg"
   xmlns:svg="http://www.w3.org/2000/svg"><defs
   id="defs4" /><sodipodi:namedview
   id="namedview4"
   pagecolor="#ffffff"
   bordercolor="#666666"
   borderopacity="1.0"
   inkscape:showpageshadow="2"
   inkscape:pageopacity="0.0"
   inkscape:pagecheckerboard="0"
   inkscape:deskcolor="#d1d1d1"
   inkscape:zoom="6.28125"
   inkscape:cx="63.920398"
   inkscape:cy="65.273632"
   inkscape:window-width="1920"
   inkscape:window-height="1034"
   inkscape:window-x="4800"
   inkscape:window-y="21"
   inkscape:window-maximized="1"
   inkscape:current-layer="g4" />&#10;<g
   id="g4">&#10;	<path
   style="fill:#8E24AA;"
   d="M116.46,3.96h-104c-4.42,0-8,3.58-8,8v104c0,4.42,3.58,8,8,8h104c4.42,0,8-3.58,8-8v-104   C124.46,7.54,120.88,3.96,116.46,3.96z"
   id="path1" />&#10;	<path
   style="fill:#AB47BC;"
   d="M110.16,3.96h-98.2c-4.13,0.03-7.47,3.37-7.5,7.5v97.9c-0.01,4.14,3.34,7.49,7.48,7.5   c0.01,0,0.01,0,0.02,0h98.1c4.14,0.01,7.49-3.34,7.5-7.48c0-0.01,0-0.01,0-0.02v-97.9c0.09-4.05-3.13-7.41-7.18-7.5   C110.31,3.96,110.23,3.96,110.16,3.96z"
   id="path2" />&#10;	<path
   style="opacity:0.3;fill:#FAFAFA;enable-background:new    ;"
   d="M40.16,12.86c0-2.3-1.6-3-10.8-2.7c-7.7,0.3-11.5,1.2-13.8,4   s-2.9,8.5-3,15.3c0,4.8,0,9.3,2.5,9.3c3.4,0,3.4-7.9,6.2-12.3C26.66,17.76,40.16,15.86,40.16,12.86z"
   id="path3" />&#10;	&#10;	&#10;<path
   style="font-size:122.052px;line-height:100%;font-family:'Fira Sans';-inkscape-font-specification:'Fira Sans';font-variant-ligatures:historical-ligatures;font-variant-numeric:lining-nums tabular-nums slashed-zero;font-feature-settings:'ss06';text-align:center;text-anchor:middle;fill:#f9f9f9;stroke-width:7.68827;stroke-linecap:square"
   d="m 65.10796,19.58295 q 7.32312,0 12.571356,2.685144 5.370288,2.563092 8.055432,6.956964 2.685144,4.393872 2.685144,9.398004 0,4.760028 -1.708728,8.177484 -1.586676,3.295404 -3.905664,5.370288 -2.318988,2.074884 -6.224652,4.88208 -5.126184,3.539508 -7.689276,6.590809 -2.563092,2.929248 -2.563092,7.93338 v 5.49234 H 55.221748 v -6.1026 q 0,-5.248236 1.708728,-8.909796 1.83078,-3.661561 4.27182,-5.858497 2.44104,-2.196936 6.468756,-5.004132 4.637976,-3.0513 6.834912,-5.49234 2.196936,-2.44104 2.196936,-6.346704 0,-5.004132 -3.295404,-7.689276 -3.295404,-2.807196 -9.031848,-2.807196 -9.76416,0 -16.965228,8.787744 L 39.721144,31.666098 Q 49.973512,19.58295 65.10796,19.58295 Z m -4.027716,70.057849 q 3.66156,0 6.1026,2.44104 2.44104,2.44104 2.44104,5.980548 0,3.539513 -2.44104,6.102603 -2.44104,2.44104 -6.1026,2.44104 -3.539508,0 -5.980548,-2.44104 -2.44104,-2.56309 -2.44104,-6.102603 0,-3.539508 2.44104,-5.980548 2.44104,-2.44104 5.980548,-2.44104 z"
   id="text4"
   aria-label="?" /></g>&#10;</svg>
