<?xml version="1.0" encoding="UTF-8" standalone="no"?>
<!-- Generator: Adobe Illustrator 24.0.3, SVG Export Plug-In . SVG Version: 6.00 Build 0)  -->

<svg
   version="1.1"
   id="Layer_1"
   x="0px"
   y="0px"
   viewBox="0 0 128 128"
   style="enable-background:new 0 0 128 128;"
   xml:space="preserve"
   sodipodi:docname="overweight.svg"
   inkscape:version="1.2.2 (b0a8486541, 2022-12-01)"
   xmlns:inkscape="http://www.inkscape.org/namespaces/inkscape"
   xmlns:sodipodi="http://sodipodi.sourceforge.net/DTD/sodipodi-0.dtd"
   xmlns="http://www.w3.org/2000/svg"
   xmlns:svg="http://www.w3.org/2000/svg"><defs
   id="defs137" /><sodipodi:namedview
   id="namedview135"
   pagecolor="#ffffff"
   bordercolor="#666666"
   borderopacity="1.0"
   inkscape:showpageshadow="2"
   inkscape:pageopacity="0.0"
   inkscape:pagecheckerboard="0"
   inkscape:deskcolor="#d1d1d1"
   showgrid="false"
   inkscape:zoom="4.1377859"
   inkscape:cx="-57.881197"
   inkscape:cy="26.221753"
   inkscape:window-width="2880"
   inkscape:window-height="1620"
   inkscape:window-x="1920"
   inkscape:window-y="0"
   inkscape:window-maximized="1"
   inkscape:current-layer="Layer_1" />
<linearGradient
   id="arm_1_"
   gradientUnits="userSpaceOnUse"
   x1="82.2091"
   y1="49.9331"
   x2="82.2091"
   y2="88.4592"
   gradientTransform="translate(2.0147006,2)">
	<stop
   offset="0.5993"
   style="stop-color:#FFCA28"
   id="stop2" />
	<stop
   offset="1"
   style="stop-color:#FFB300"
   id="stop4" />
</linearGradient>
<path
   id="arm_3_"
   style="fill:url(#arm_1_)"
   d="m 88.574701,90.88 c -0.18,0 -0.34,-0.05 -0.46,-0.14 -0.53,-0.4 -0.44,-2.61 -0.41,-3.34 0.04,-1 -0.53,-2.23 -1.08,-2.81 -0.28,-0.29 -0.58,-0.44 -0.88,-0.44 h -0.04 l -0.11,0.01 -0.13,0.04 c -0.67,0.15 -0.68,0.98 -0.69,1.79 -0.01,0.56 -0.02,1.18 -0.2,1.71 -0.1,0.3 -0.47,0.31 -0.54,0.31 -0.44,0 -0.92,-0.28 -0.94,-0.9 0,-0.08 -0.02,-0.18 -0.06,-0.33 -0.07,-0.35 -0.23,-1.07 -0.15,-2.54 0.1,-1.76 0.31,-3.77 1.11,-5.38 l 0.1,-0.19 -5.36,-19.3 -2.1,-6.87 c 0.76,-0.4 2.6,-1.25 4.45,-1.25 2.15,0 3.66,1.14 4.5,3.38 1.38,3.6 2.23,7.95 2.68,13.7 0.35,4.42 0.94,8.1 1.21,8.96 0.08,0.25 0.24,0.76 0.24,0.76 0.31,1.01 0.43,1.39 1.72,4.1 0.68,1.43 0.41,2.87 0.09,4.54 -0.11,0.56 -0.21,1.12 -0.29,1.7 -0.19,1.27 -1.67,2.49 -2.66,2.49 z" />
<linearGradient
   id="arm_4_"
   gradientUnits="userSpaceOnUse"
   x1="45.7918"
   y1="49.9331"
   x2="45.7918"
   y2="88.4592"
   gradientTransform="translate(-2.5504214,2)">
	<stop
   offset="0.5993"
   style="stop-color:#FFCA28"
   id="stop8" />
	<stop
   offset="1"
   style="stop-color:#FFB300"
   id="stop10" />
</linearGradient>
<path
   id="arm_2_"
   style="fill:url(#arm_4_)"
   d="m 38.889579,90.88 c -0.99,0 -2.47,-1.23 -2.64,-2.48 -0.08,-0.59 -0.19,-1.16 -0.29,-1.7 -0.32,-1.67 -0.59,-3.12 0.08,-4.55 1.28,-2.69 1.41,-3.1 1.71,-4.07 0.07,-0.22 0.14,-0.47 0.25,-0.78 0.27,-0.81 0.86,-4.47 1.22,-8.96 0.46,-5.76 1.31,-10.11 2.67,-13.69 0.85,-2.24 2.37,-3.37 4.51,-3.37 1.86,0 3.7,0.85 4.45,1.24 l -2.1,6.85 -5.36,19.31 0.1,0.19 c 0.81,1.61 1.01,3.62 1.11,5.38 0.07,1.47 -0.08,2.19 -0.16,2.54 -0.03,0.15 -0.05,0.25 -0.05,0.33 -0.03,0.62 -0.51,0.9 -0.94,0.9 -0.28,0 -0.48,-0.11 -0.54,-0.31 -0.18,-0.52 -0.19,-1.15 -0.2,-1.7 -0.01,-0.81 -0.03,-1.65 -0.77,-1.82 0,0 -0.18,-0.02 -0.18,-0.02 -0.33,0 -0.62,0.15 -0.91,0.44 -0.55,0.57 -1.12,1.81 -1.08,2.8 0.03,0.73 0.12,2.94 -0.42,3.35 -0.12,0.08 -0.28,0.12 -0.46,0.12 z" /><ellipse
   style="fill:#7c7c7c;fill-opacity:1;stroke-width:3.77953;stroke-linecap:round;stroke-linejoin:round"
   id="path591"
   cx="64.014565"
   cy="70.089973"
   rx="21.433447"
   ry="19.533401" />
<path
   style="fill:#7c7c7c;stroke-width:1"
   d="M 71.531341,121.41 65.759554,86.35 c -0.16811,-0.76 -0.907795,-1.27 -1.748347,-1.27 -0.840551,0 -1.580237,0.51 -1.73714,1.22 l -5.794201,35.11 -6.948559,0.24 -1.154357,-46.03 h 31.2461 l -1.14315,46.03 z"
   id="path14" />
<g
   id="shoes_1_">
	<path
   style="fill:#424242"
   d="m 75.024013,124 h 4.45 c 0.82,-0.02 1.41,-0.96 1.17,-1.78 -0.74,-2.49 -2.99,-4.32 -5.62,-4.32 -2.68,0 -4.96,1.9 -5.66,4.46 -0.22,0.82 0.39,1.63 1.21,1.63 h 4.45 z"
   id="path16" />
	<path
   style="fill:#424242"
   d="m 52.623636,124 h -4.45 c -0.82,-0.02 -1.41,-0.96 -1.17,-1.78 0.74,-2.49 2.99,-4.32 5.62,-4.32 2.68,0 4.96,1.9 5.66,4.46 0.22,0.82 -0.39,1.63 -1.21,1.63 h -4.45 V 124 Z"
   id="path18" />
</g>
<linearGradient
   id="shirt_1_"
   gradientUnits="userSpaceOnUse"
   x1="64.015"
   y1="41.571"
   x2="64.015"
   y2="74.9683"
   gradientTransform="matrix(1.1193276,0,0,1,-7.6387583,2)">
	<stop
   offset="0.3661"
   style="stop-color:#F78C1F"
   id="stop21" />
	<stop
   offset="0.6716"
   style="stop-color:#F47F12"
   id="stop23" />
	<stop
   offset="0.9886"
   style="stop-color:#EF6C00"
   id="stop25" />
</linearGradient>
<path
   id="shirt_2_"
   style="fill:url(#shirt_1_);stroke-width:1"
   d="m 74.822106,44.87 c -2.69758,-0.64 -6.245848,-1.06 -10.678385,-1.06 h -0.08955 -0.08955 c -4.432537,0 -8.036772,0.42 -10.711965,1.06 -8.450923,2.01 -10.588839,6.56 -13.107326,12.65 l 5.58355,2.308439 c 0,0 -1.565506,2.551379 -2.06979,3.949567 -0.53436,1.481575 -0.855642,3.05175 -0.98308,4.621579 -0.146424,1.80371 -0.07203,3.643537 0.258252,5.422786 C 43.201965,75.264504 44.316337,78 44.316337,78 l 39.184973,0.193593 c 0,0 1.337191,-2.907439 1.669885,-4.459471 0.365121,-1.703306 0.487173,-3.480001 0.334409,-5.21529 -0.157266,-1.78643 -0.626208,-3.555178 -1.277001,-5.226265 -0.477641,-1.22647 -1.90378,-3.459328 -1.90378,-3.459328 L 87.884659,57.52 C 85.366172,51.43 83.273029,46.88 74.822106,44.87 Z"
   sodipodi:nodetypes="cscscccaaaccaaaccc" />
<g
   id="hairGroup_7_">
	<path
   id="hair_8_"
   style="fill:#543930;"
   d="M79.09,37.01c-0.54-0.98,0.15-1.98,1.32-3.22c1.86-1.96,3.89-6.51,2.01-11.14   c0.01-0.03-0.37-0.81-0.36-0.83l-0.78-0.04c-0.25-0.04-8.76-0.05-17.28-0.05c-8.52,0-17.03,0.02-17.28,0.05   c0,0-1.15,0.84-1.14,0.87c-1.88,4.62,0.15,9.17,2.01,11.14c1.17,1.24,1.86,2.24,1.32,3.22c-0.52,0.95-2.08,1.09-2.08,1.09   s0.36,0.98,1.22,1.5c0.8,0.49,1.78,0.6,2.47,0.62c0,0,2.66,3.68,9.61,3.68l3.87,0l3.87,0c6.95,0,9.61-3.68,9.61-3.68   c0.68-0.02,1.66-0.13,2.47-0.62c0.87-0.53,1.22-1.5,1.22-1.5S79.61,37.96,79.09,37.01z" />
	<g
   id="hairHighlights_1_">
		
			<radialGradient
   id="SVGID_1_"
   cx="52.8516"
   cy="86.9616"
   r="10.1246"
   gradientTransform="matrix(1 0 0 0.4912 17.4531 -4.7131)"
   gradientUnits="userSpaceOnUse">
			<stop
   offset="0.7275"
   style="stop-color:#6D4C41;stop-opacity:0"
   id="stop30" />
			<stop
   offset="1"
   style="stop-color:#6D4C41"
   id="stop32" />
		</radialGradient>
		<path
   style="fill:url(#SVGID_1_);"
   d="M64,43.9v-4.08l12.35-0.98l1.12,1.38c0,0-2.66,3.68-9.61,3.68L64,43.9z"
   id="path35" />
		
			<radialGradient
   id="SVGID_2_"
   cx="96.8326"
   cy="108.0249"
   r="2.9921"
   gradientTransform="matrix(-0.9057 0.4238 -0.3144 -0.6719 201.9439 68.0395)"
   gradientUnits="userSpaceOnUse">
			<stop
   offset="0.6628"
   style="stop-color:#6D4C41"
   id="stop37" />
			<stop
   offset="1"
   style="stop-color:#6D4C41;stop-opacity:0"
   id="stop39" />
		</radialGradient>
		<path
   style="fill:url(#SVGID_2_);"
   d="M77.44,38.44c-1.85-2.81,2.25-3.86,2.25-3.86s0,0,0,0c-0.71,0.89-1.04,1.66-0.62,2.42    c0.52,0.95,2.08,1.09,2.08,1.09S79.04,39.99,77.44,38.44z"
   id="path42" />
		
			<radialGradient
   id="SVGID_3_"
   cx="82.2932"
   cy="64.917"
   r="13.1424"
   gradientTransform="matrix(-0.0746 -0.9972 0.8311 -0.0622 24.7108 114.1347)"
   gradientUnits="userSpaceOnUse">
			<stop
   offset="0.7247"
   style="stop-color:#6D4C41;stop-opacity:0"
   id="stop44" />
			<stop
   offset="1"
   style="stop-color:#6D4C41"
   id="stop46" />
		</radialGradient>
		<path
   style="fill:url(#SVGID_3_);"
   d="M82.43,22.65c1.84,4.48-0.1,9.08-1.91,11.03c-0.25,0.27-1.3,1.3-1.54,2.13    c0,0-4.12-5.75-5.36-9.13c-0.25-0.68-0.47-1.39-0.5-2.11c-0.02-0.54,0.06-1.19,0.38-1.65c0.38-0.57,8.72-0.73,8.72-0.73    C82.21,22.18,82.43,22.65,82.43,22.65z"
   id="path49" />
		
			<radialGradient
   id="SVGID_4_"
   cx="82.8879"
   cy="133.1962"
   r="13.1424"
   gradientTransform="matrix(0.0746 -0.9972 -0.8311 -0.0622 160.0015 118.9747)"
   gradientUnits="userSpaceOnUse">
			<stop
   offset="0.7247"
   style="stop-color:#6D4C41;stop-opacity:0"
   id="stop51" />
			<stop
   offset="1"
   style="stop-color:#6D4C41"
   id="stop53" />
		</radialGradient>
		<path
   style="fill:url(#SVGID_4_);"
   d="M45.58,22.65c-1.84,4.48,0.1,9.08,1.91,11.03c0.25,0.27,1.3,1.3,1.54,2.13    c0,0,4.12-5.75,5.36-9.13c0.25-0.68,0.47-1.39,0.51-2.11c0.02-0.54-0.06-1.19-0.38-1.65c-0.38-0.57-0.83-0.42-1.49-0.42    c-1.25,0-6.69-0.32-7.12-0.32C45.92,22.18,45.58,22.65,45.58,22.65z"
   id="path56" />
		
			<radialGradient
   id="SVGID_5_"
   cx="114.7697"
   cy="86.9616"
   r="10.1246"
   gradientTransform="matrix(-1 0 0 0.4912 172.4749 -4.7131)"
   gradientUnits="userSpaceOnUse">
			<stop
   offset="0.7275"
   style="stop-color:#6D4C41;stop-opacity:0"
   id="stop58" />
			<stop
   offset="1"
   style="stop-color:#6D4C41"
   id="stop60" />
		</radialGradient>
		<path
   style="fill:url(#SVGID_5_);"
   d="M64.01,43.9v-4.08l-12.35-0.98l-1.12,1.38c0,0,2.66,3.68,9.61,3.68L64.01,43.9z"
   id="path63" />
		
			<radialGradient
   id="SVGID_6_"
   cx="49.9976"
   cy="75.4224"
   r="2.9921"
   gradientTransform="matrix(0.9057 0.4238 0.3144 -0.6719 -21.2655 65.9825)"
   gradientUnits="userSpaceOnUse">
			<stop
   offset="0.6628"
   style="stop-color:#6D4C41"
   id="stop65" />
			<stop
   offset="1"
   style="stop-color:#6D4C41;stop-opacity:0"
   id="stop67" />
		</radialGradient>
		<path
   style="fill:url(#SVGID_6_);"
   d="M50.57,38.44c1.85-2.81-2.25-3.86-2.25-3.86s0,0,0,0c0.71,0.89,1.04,1.66,0.62,2.42    c-0.52,0.95-2.08,1.09-2.08,1.09S48.97,39.99,50.57,38.44z"
   id="path70" />
	</g>
</g>
<path
   id="neck_4_"
   style="fill:#E59600;"
   d="M64,40.72h-5v5.3c0,2.4,2.03,4.34,4.54,4.34h0.91c2.51,0,4.54-1.94,4.54-4.34v-5.3H64z" />
<path
   id="ears"
   style="fill:#E59600;"
   d="M75.97,24.34h-3.23H55.26h-3.23c-2.58,0-4.69,2.25-4.69,5s2.11,5,4.69,5h3.23h17.49h3.23  c2.58,0,4.69-2.25,4.69-5S78.56,24.34,75.97,24.34z" />
<path
   id="head"
   style="fill:#FFCA28;"
   d="M64,6.66L64,6.66L64,6.66c-7.62,0-14.69,8.15-14.69,19.89c0,11.67,7.28,17.44,14.69,17.44  s14.69-5.77,14.69-17.44C78.69,14.81,71.62,6.66,64,6.66z" />
<g
   id="hairGroup_6_">
	<path
   id="hair_7_"
   style="fill:#543930;"
   d="M81.4,13.34c-1.06-1.6-3.42-3.74-5.54-3.88c-0.34-2.04-2.52-3.77-4.64-4.44   c-5.72-1.81-9.44,0.22-11.44,1.31c-0.42,0.23-3.1,1.72-4.98,0.65c-1.18-0.67-1.15-2.48-1.15-2.48s-3.69,1.4-2.42,5.32   c-1.26,0.05-2.93,0.59-3.81,2.36c-1.05,2.12-0.67,3.89-0.37,4.74c-1.09,0.92-2.46,2.89-1.52,5.45c0.71,1.92,3.53,2.81,3.53,2.81   c-0.2,3.46,0.45,5.59,0.79,6.46c0.06,0.15,0.27,0.14,0.31-0.02c0.43-1.71,1.89-7.69,1.74-8.74c0,0,4.9-0.97,9.58-4.42   c0.95-0.7,1.98-1.3,3.08-1.74c5.88-2.34,7.11,1.65,7.11,1.65s4.07-0.78,5.3,4.87c0.46,2.12,0.78,5.51,1.04,7.89   c0.02,0.17,0.25,0.2,0.31,0.05c0.41-0.94,1.23-2.81,1.43-4.72c0.07-0.67,1.88-1.56,2.65-4.44C83.44,18.19,82.17,14.5,81.4,13.34z" />
	<g
   id="hairHighlights">
		
			<radialGradient
   id="SVGID_7_"
   cx="90.6195"
   cy="69.8242"
   r="15.405"
   gradientTransform="matrix(0.3076 0.9515 0.706 -0.2282 -5.3028 -49.1923)"
   gradientUnits="userSpaceOnUse">
			<stop
   offset="0.6985"
   style="stop-color:#6D4C41;stop-opacity:0"
   id="stop78" />
			<stop
   offset="1"
   style="stop-color:#6D4C41"
   id="stop80" />
		</radialGradient>
		<path
   style="fill:url(#SVGID_7_);"
   d="M79.74,26.48c0.07-0.67,1.88-1.56,2.65-4.44c0.08-0.31,0.15-0.62,0.22-0.93    c0.63-3.5-0.5-6.71-1.21-7.77c-0.98-1.48-3.07-3.41-5.06-3.81c-0.17-0.02-0.34-0.04-0.5-0.05c0,0,0.14,0.93-0.23,1.67    c-0.49,0.96-1.47,1.19-1.47,1.19C79.31,17.52,78.94,21.85,79.74,26.48z"
   id="path83" />
		
			<radialGradient
   id="SVGID_8_"
   cx="59.7551"
   cy="112.0996"
   r="4.039"
   gradientTransform="matrix(0.8813 0.4726 0.5603 -1.045 -58.6205 93.2087)"
   gradientUnits="userSpaceOnUse">
			<stop
   offset="0.58"
   style="stop-color:#6D4C41"
   id="stop85" />
			<stop
   offset="1"
   style="stop-color:#6D4C41;stop-opacity:0"
   id="stop87" />
		</radialGradient>
		<path
   style="fill:url(#SVGID_8_);"
   d="M61.03,5.68c-0.47,0.23-0.89,0.46-1.25,0.65c-0.42,0.23-3.1,1.72-4.98,0.65    c-1.16-0.66-1.15-2.41-1.15-2.47c-0.53,0.68-2.14,5.53,2.56,5.85c2.03,0.14,3.28-1.63,4.02-3.13C60.5,6.69,60.92,5.9,61.03,5.68z"
   id="path90" />
		
			<radialGradient
   id="SVGID_9_"
   cx="165.3682"
   cy="98.2311"
   r="12.4169"
   gradientTransform="matrix(-0.9378 -0.3944 -0.2182 0.5285 242.3954 24.9435)"
   gradientUnits="userSpaceOnUse">
			<stop
   offset="0.6985"
   style="stop-color:#6D4C41;stop-opacity:0"
   id="stop92" />
			<stop
   offset="1"
   style="stop-color:#6D4C41"
   id="stop94" />
		</radialGradient>
		<path
   style="fill:url(#SVGID_9_);"
   d="M70.63,4.85c3.17,0.86,4.71,2.47,5.22,4.62c0.15,0.63,0.33,6.52-10.91-0.17    c-4.18-2.49-3.04-4.05-2.55-4.22C64.31,4.38,67.09,3.89,70.63,4.85z"
   id="path97" />
		
			<radialGradient
   id="SVGID_10_"
   cx="55.2283"
   cy="119.8296"
   r="3.7074"
   gradientTransform="matrix(1 0 0 -1.2233 0 154.5756)"
   gradientUnits="userSpaceOnUse">
			<stop
   offset="0.7016"
   style="stop-color:#6D4C41;stop-opacity:0"
   id="stop99" />
			<stop
   offset="1"
   style="stop-color:#6D4C41"
   id="stop101" />
		</radialGradient>
		<path
   style="fill:url(#SVGID_10_);"
   d="M53.63,4.51c-0.01,0-0.01,0.01-0.03,0.01c0,0,0,0,0,0c-0.4,0.17-3.56,1.63-2.38,5.3    l3.37,0.54c-2.98-3.02-0.94-5.86-0.94-5.86S53.64,4.51,53.63,4.51z"
   id="path104" />
		
			<radialGradient
   id="SVGID_11_"
   cx="110.9075"
   cy="119.3349"
   r="6.9533"
   gradientTransform="matrix(-0.9657 -0.2598 -0.2432 0.9037 190.8405 -64.4947)"
   gradientUnits="userSpaceOnUse">
			<stop
   offset="0.6605"
   style="stop-color:#6D4C41;stop-opacity:0"
   id="stop106" />
			<stop
   offset="1"
   style="stop-color:#6D4C41"
   id="stop108" />
		</radialGradient>
		<path
   style="fill:url(#SVGID_11_);"
   d="M53.3,10.15l-2.08-0.34c-0.08,0-0.36,0.02-0.51,0.05c-1.17,0.16-2.55,0.77-3.3,2.32    c-0.8,1.67-0.78,3.1-0.56,4.06c0.06,0.32,0.19,0.68,0.19,0.68s1.03-0.98,3.48-1.04L53.3,10.15z"
   id="path111" />
		
			<radialGradient
   id="SVGID_12_"
   cx="53.1987"
   cy="103.6993"
   r="7.3001"
   gradientTransform="matrix(0.9907 0.1363 0.1915 -1.3921 -19.4904 158.3543)"
   gradientUnits="userSpaceOnUse">
			<stop
   offset="0.5981"
   style="stop-color:#6D4C41;stop-opacity:0"
   id="stop113" />
			<stop
   offset="1"
   style="stop-color:#6D4C41"
   id="stop115" />
		</radialGradient>
		<path
   style="fill:url(#SVGID_12_);"
   d="M46.95,17c-1.02,0.91-2.4,2.94-1.39,5.45c0.77,1.9,3.5,2.72,3.5,2.72    c0,0.01,0.55,0.17,0.83,0.17l0.64-9.47c-1.31,0-2.57,0.39-3.38,0.96C47.15,16.85,46.94,16.99,46.95,17z"
   id="path118" />
	</g>
</g>
<path
   id="mouth_4_"
   style="fill:#795548;"
   d="M67.69,35.99c-1.4,0.83-5.97,0.83-7.37,0c-0.8-0.48-1.62,0.25-1.29,0.98  c0.33,0.72,2.82,2.38,4.98,2.38c2.16,0,4.62-1.66,4.95-2.38C69.3,36.24,68.49,35.51,67.69,35.99z" />
<path
   id="nose_4_"
   style="fill:#E59600;"
   d="M65.69,32.4c-0.05-0.02-0.09-0.03-0.14-0.04h-3.1c-0.05,0.01-0.1,0.02-0.14,0.04  c-0.28,0.11-0.44,0.4-0.3,0.72S62.76,34.3,64,34.3c1.24,0,1.86-0.87,1.99-1.18C66.13,32.81,65.97,32.52,65.69,32.4z" />
<g
   id="eyes_4_">
	<ellipse
   style="fill:#404040;"
   cx="56.8"
   cy="28.33"
   rx="2.16"
   ry="2.24"
   id="ellipse124" />
	<ellipse
   style="fill:#404040;"
   cx="71.2"
   cy="28.33"
   rx="2.16"
   ry="2.24"
   id="ellipse126" />
</g>
<g
   id="eyebrows_4_">
	<path
   style="fill:#6D4C41;"
   d="M68,24.32c0.41-0.54,1.36-1.34,3.21-1.34s2.8,0.79,3.21,1.34c0.18,0.24,0.14,0.52,0.01,0.69   c-0.12,0.16-0.46,0.3-0.84,0.17c-0.38-0.13-1.13-0.51-2.37-0.52c-1.25,0.01-1.99,0.39-2.37,0.52c-0.38,0.13-0.73-0.01-0.84-0.17   C67.86,24.83,67.82,24.56,68,24.32z"
   id="path129" />
	<path
   style="fill:#6D4C41;"
   d="M53.59,24.32c0.41-0.54,1.36-1.34,3.21-1.34s2.8,0.79,3.21,1.34c0.18,0.24,0.14,0.52,0.01,0.69   c-0.12,0.16-0.46,0.3-0.84,0.17c-0.38-0.13-1.13-0.51-2.37-0.52c-1.25,0.01-1.99,0.39-2.37,0.52c-0.38,0.13-0.73-0.01-0.84-0.17   C53.45,24.83,53.41,24.56,53.59,24.32z"
   id="path131" />
</g>
</svg>
