<?xml version="1.0" encoding="UTF-8" standalone="no"?>
<!-- Generator: Adobe Illustrator 24.0.3, SVG Export Plug-In . SVG Version: 6.00 Build 0)  -->

<svg
   version="1.1"
   id="Layer_1"
   x="0px"
   y="0px"
   viewBox="0 0 128 128"
   style="enable-background:new 0 0 128 128;"
   xml:space="preserve"
   sodipodi:docname="poverty.svg"
   inkscape:version="1.3.1 (91b66b0783, 2023-11-16, custom)"
   xmlns:inkscape="http://www.inkscape.org/namespaces/inkscape"
   xmlns:sodipodi="http://sodipodi.sourceforge.net/DTD/sodipodi-0.dtd"
   xmlns="http://www.w3.org/2000/svg"
   xmlns:svg="http://www.w3.org/2000/svg"><defs
   id="defs137"><inkscape:path-effect
     effect="spiro"
     id="path-effect16"
     is_visible="true"
     lpeversion="1" /><inkscape:path-effect
     effect="spiro"
     id="path-effect12"
     is_visible="true"
     lpeversion="1" /><rect
     id="SVGID_2_"
     x="0"
     style="opacity:0.2;"
     width="128"
     height="128" /></defs><sodipodi:namedview
   id="namedview135"
   pagecolor="#ffffff"
   bordercolor="#666666"
   borderopacity="1.0"
   inkscape:showpageshadow="2"
   inkscape:pageopacity="0.0"
   inkscape:pagecheckerboard="0"
   inkscape:deskcolor="#d1d1d1"
   showgrid="false"
   inkscape:zoom="2.6199492"
   inkscape:cx="87.597119"
   inkscape:cy="50.382657"
   inkscape:window-width="1270"
   inkscape:window-height="1034"
   inkscape:window-x="650"
   inkscape:window-y="21"
   inkscape:window-maximized="1"
   inkscape:current-layer="Layer_1" />
<linearGradient
   id="arm_1_"
   gradientUnits="userSpaceOnUse"
   x1="82.2091"
   y1="49.9331"
   x2="82.2091"
   y2="88.4592"
   gradientTransform="rotate(-13.985731,94.755572,30.063633)">
	<stop
   offset="0.5993"
   style="stop-color:#FFCA28"
   id="stop2" />
	<stop
   offset="1"
   style="stop-color:#FFB300"
   id="stop4" />
</linearGradient>

<linearGradient
   id="arm_4_"
   gradientUnits="userSpaceOnUse"
   x1="45.7918"
   y1="49.9331"
   x2="45.7918"
   y2="88.4592"
   gradientTransform="translate(-5.7167567,2)">
	<stop
   offset="0.5993"
   style="stop-color:#FFCA28"
   id="stop8" />
	<stop
   offset="1"
   style="stop-color:#FFB300"
   id="stop10" />
</linearGradient>



<linearGradient
   id="shirt_1_"
   gradientUnits="userSpaceOnUse"
   x1="64.015"
   y1="41.571"
   x2="64.015"
   y2="74.9683"
   gradientTransform="matrix(1.2746692,0,0,1,-17.582951,2)">
	<stop
   offset="0.3661"
   style="stop-color:#F78C1F"
   id="stop21" />
	<stop
   offset="0.6716"
   style="stop-color:#F47F12"
   id="stop23" />
	<stop
   offset="0.9886"
   style="stop-color:#EF6C00"
   id="stop25" />
</linearGradient>










<g
   id="g66"
   transform="matrix(0.92300869,0,0,0.92300869,5.5179836,5.5871068)">
	<circle
   style="fill:#d68f30"
   cx="64"
   cy="66.580002"
   r="57.360001"
   id="circle1" />
	<g
   id="g12">
		<g
   id="g1">
			<path
   style="fill:#bc6f00"
   d="m 10.54,81.48 v 5.86 c 0.6,1.55 1.27,3.08 2,4.56 V 81.48 Z"
   id="path1" />
		</g>
		<g
   id="g2">
			<path
   style="fill:#bc6f00"
   d="m 17.08,92.51 v 7.04 c 0.8,1.13 1.63,2.24 2.5,3.31 V 92.51 Z"
   id="path2" />
		</g>
		<g
   id="g3">
			<path
   style="fill:#bc6f00"
   d="m 25.74,101.71 v 7.59 c 0.97,0.87 1.97,1.7 3,2.5 v -10.09 z"
   id="path3" />
		</g>
		<g
   id="g4">
			<path
   style="fill:#bc6f00"
   d="m 36.4,108.7 v 8.16 c 0.98,0.54 1.98,1.05 3,1.54 v -9.7 z"
   id="path4" />
		</g>
		<g
   id="g5">
			<path
   style="fill:#bc6f00"
   d="m 48.49,113.15 v 8.64 c 0.99,0.28 1.99,0.53 3,0.76 v -9.4 z"
   id="path5" />
		</g>
		<g
   id="g6">
			<path
   style="fill:#bc6f00"
   d="m 62.64,114.69 v 9.21 c 0.45,0.01 0.9,0.03 1.36,0.03 0.55,0 1.1,-0.03 1.64,-0.04 v -9.2 z"
   id="path6" />
		</g>
		<g
   id="g7">
			<path
   style="fill:#bc6f00"
   d="m 76.79,113.08 v 9.4 c 1.01,-0.23 2.01,-0.49 3,-0.77 v -8.63 z"
   id="path7" />
		</g>
		<g
   id="g8">
			<path
   style="fill:#bc6f00"
   d="m 88.85,108.57 v 9.71 c 1.02,-0.49 2.02,-1.02 3,-1.57 v -8.14 z"
   id="path8" />
		</g>
		<g
   id="g9">
			<path
   style="fill:#bc6f00"
   d="m 99.48,101.52 v 10.1 c 1.03,-0.81 2.03,-1.64 3,-2.52 v -7.58 z"
   id="path9" />
		</g>
		<g
   id="g10">
			<path
   style="fill:#bc6f00"
   d="m 111.09,92.29 h -2.5 v 10.35 c 0.87,-1.08 1.71,-2.19 2.5,-3.33 z"
   id="path10" />
		</g>
		<g
   id="g11">
			<path
   style="fill:#bc6f00"
   d="m 117.59,81.22 h -2 v 10.44 c 0.73,-1.51 1.4,-3.06 2,-4.63 z"
   id="path11" />
		</g>
	</g>
	<circle
   style="fill:#fff176"
   cx="64"
   cy="61.419998"
   r="57.360001"
   id="circle12" />
	<circle
   style="fill:#f2bc1a"
   cx="64"
   cy="61.419998"
   r="52.25"
   id="circle13" />
	<g
   id="g13">
		<path
   style="fill:#e08f00"
   d="M 11.65,63.42 C 11.28,56.54 12.47,49.56 14.87,43.02 17.37,36.5 21.2,30.47 26.03,25.35 35.73,15.09 49.81,9.14 64,9.07 c 14.19,0.08 28.28,6.02 37.96,16.29 4.84,5.11 8.66,11.15 11.16,17.66 2.41,6.55 3.6,13.52 3.22,20.4 h -0.2 c -0.02,-6.85 -1.38,-13.68 -4,-20 C 109.53,37.1 105.66,31.3 100.85,26.45 96.03,21.6 90.26,17.7 83.95,15.07 c -6.3,-2.64 -13.13,-4 -19.96,-4 -6.83,0 -13.66,1.36 -19.96,4 -6.31,2.63 -12.08,6.53 -16.9,11.38 -4.82,4.85 -8.68,10.65 -11.29,16.97 -2.62,6.32 -3.98,13.15 -4,20 z"
   id="path13" />
	</g>
	<path
   style="fill:#fff176"
   d="m 64,4.07 c -31.68,0 -57.36,25.68 -57.36,57.36 0,31.68 25.68,57.36 57.36,57.36 31.68,0 57.36,-25.68 57.36,-57.36 C 121.36,29.75 95.68,4.07 64,4.07 Z m 0,109.61 C 35.14,113.68 11.75,90.29 11.75,61.43 11.75,32.56 35.14,9.17 64,9.17 c 28.86,0 52.25,23.39 52.25,52.25 0,28.86 -23.39,52.26 -52.25,52.26 z"
   id="path14" />
	<g
   id="g22">
		<g
   id="g14">
			<polygon
   style="fill:#d38200"
   points="41.33,30.05 41.33,31.64 37.99,29.21 34.64,31.64 34.64,30.05 35.92,27.71 32.58,25.28 32.58,23.7 36.71,25.28 37.99,21.35 39.26,25.28 43.4,23.7 43.4,25.28 40.05,27.71 "
   id="polygon14" />
		</g>
		<g
   id="g15">
			<polygon
   style="fill:#d38200"
   points="25.36,52.62 25.36,54.2 22.01,51.77 18.67,54.2 18.67,52.62 19.95,50.27 16.6,47.84 16.6,46.26 20.74,47.84 22.01,43.91 23.29,47.84 27.42,46.26 27.42,47.84 24.08,50.27 "
   id="polygon15" />
		</g>
		<g
   id="g16">
			<polygon
   style="fill:#d38200"
   points="24.89,80.43 24.89,82.01 21.54,79.58 18.2,82.01 18.2,80.43 19.48,78.08 16.13,75.65 16.13,74.07 20.27,75.65 21.54,71.72 22.82,75.65 26.95,74.07 26.95,75.65 23.61,78.08 "
   id="polygon16" />
		</g>
		<g
   id="g17">
			<polygon
   style="fill:#d38200"
   points="41.95,102.5 41.95,104.09 38.6,101.66 35.26,104.09 35.26,102.5 36.54,100.16 33.19,97.73 33.19,96.15 37.33,97.73 38.6,93.8 39.88,97.73 44.01,96.15 44.01,97.73 40.67,100.16 "
   id="polygon17" />
		</g>
		<g
   id="g18">
			<polygon
   style="fill:#d38200"
   points="86.67,30.05 86.67,31.64 90.01,29.21 93.36,31.64 93.36,30.05 92.08,27.71 95.42,25.28 95.42,23.7 91.29,25.28 90.01,21.35 88.74,25.28 84.6,23.7 84.6,25.28 87.95,27.71 "
   id="polygon18" />
		</g>
		<g
   id="g19">
			<polygon
   style="fill:#d38200"
   points="102.64,52.62 102.64,54.2 105.99,51.77 109.33,54.2 109.33,52.62 108.05,50.27 111.4,47.84 111.4,46.26 107.26,47.84 105.99,43.91 104.71,47.84 100.58,46.26 100.58,47.84 103.92,50.27 "
   id="polygon19" />
		</g>
		<g
   id="g20">
			<polygon
   style="fill:#d38200"
   points="103.11,80.43 103.11,82.01 106.46,79.58 109.8,82.01 109.8,80.43 108.52,78.08 111.87,75.65 111.87,74.07 107.73,75.65 106.46,71.72 105.18,75.65 101.05,74.07 101.05,75.65 104.39,78.08 "
   id="polygon20" />
		</g>
		<g
   id="g21">
			<polygon
   style="fill:#d38200"
   points="86.05,102.5 86.05,104.09 89.4,101.66 92.74,104.09 92.74,102.5 91.46,100.16 94.81,97.73 94.81,96.15 90.67,97.73 89.4,93.8 88.12,97.73 83.99,96.15 83.99,97.73 87.33,100.16 "
   id="polygon21" />
		</g>
	</g>
	<g
   id="g27">
		<g
   id="g23">
			<polygon
   style="fill:#fff176"
   points="89.4,100.07 86.05,102.5 87.33,98.57 83.99,96.14 88.12,96.14 89.4,92.21 90.67,96.14 94.81,96.14 91.46,98.57 92.74,102.5 "
   id="polygon22" />
		</g>
		<g
   id="g24">
			<polygon
   style="fill:#fff176"
   points="106.46,78 103.11,80.43 104.39,76.5 101.05,74.07 105.18,74.07 106.46,70.14 107.73,74.07 111.87,74.07 108.52,76.5 109.8,80.43 "
   id="polygon23" />
		</g>
		<g
   id="g25">
			<polygon
   style="fill:#fff176"
   points="105.99,50.19 102.64,52.62 103.92,48.69 100.58,46.26 104.71,46.26 105.99,42.33 107.26,46.26 111.4,46.26 108.05,48.69 109.33,52.62 "
   id="polygon24" />
		</g>
		<g
   id="g26">
			<polygon
   style="fill:#fff176"
   points="90.01,27.62 86.67,30.05 87.95,26.12 84.6,23.69 88.74,23.69 90.01,19.76 91.29,23.69 95.42,23.69 92.08,26.12 93.36,30.05 "
   id="polygon25" />
		</g>
	</g>
	<g
   id="g32">
		<g
   id="g28">
			<polygon
   style="fill:#d38200"
   points="67.4,111.21 67.4,112.79 64.05,110.36 60.71,112.79 60.71,111.21 61.99,108.86 58.64,106.43 58.64,104.85 62.78,106.43 64.05,102.5 65.33,106.43 69.46,104.85 69.46,106.43 66.12,108.86 "
   id="polygon27" />
		</g>
		<g
   id="g29">
			<polygon
   style="fill:#fff176"
   points="64.05,108.26 60.71,110.69 61.99,106.76 58.64,104.33 62.78,104.33 64.05,100.4 65.33,104.33 69.46,104.33 66.12,106.76 67.4,110.69 "
   id="polygon28" />
		</g>
		<g
   id="g30">
			<polygon
   style="fill:#d38200"
   points="67.4,21.6 67.4,23.18 64.05,20.75 60.71,23.18 60.71,21.6 61.99,19.25 58.64,16.82 58.64,15.24 62.78,16.82 64.05,12.89 65.33,16.82 69.46,15.24 69.46,16.82 66.12,19.25 "
   id="polygon29" />
		</g>
		<g
   id="g31">
			<polygon
   style="fill:#fff176"
   points="64.05,19.17 60.71,21.6 61.99,17.67 58.64,15.24 62.78,15.24 64.05,11.31 65.33,15.24 69.46,15.24 66.12,17.67 67.4,21.6 "
   id="polygon30" />
		</g>
	</g>
	<g
   id="g37">
		<g
   id="g33">
			<polygon
   style="fill:#fff176"
   points="38.6,100.07 41.95,102.5 40.67,98.57 44.01,96.14 39.88,96.14 38.6,92.21 37.33,96.14 33.19,96.14 36.54,98.57 35.26,102.5 "
   id="polygon32" />
		</g>
		<g
   id="g34">
			<polygon
   style="fill:#fff176"
   points="21.54,78 24.89,80.43 23.61,76.5 26.95,74.07 22.82,74.07 21.54,70.14 20.27,74.07 16.13,74.07 19.48,76.5 18.2,80.43 "
   id="polygon33" />
		</g>
		<g
   id="g35">
			<polygon
   style="fill:#fff176"
   points="22.01,50.19 25.36,52.62 24.08,48.69 27.42,46.26 23.29,46.26 22.01,42.33 20.74,46.26 16.6,46.26 19.95,48.69 18.67,52.62 "
   id="polygon34" />
		</g>
		<g
   id="g36">
			<polygon
   style="fill:#fff176"
   points="37.99,27.62 41.33,30.05 40.05,26.12 43.4,23.69 39.26,23.69 37.99,19.76 36.71,23.69 32.58,23.69 35.92,26.12 34.64,30.05 "
   id="polygon35" />
		</g>
	</g>
	<path
   style="fill:#d38200"
   d="m 95.22,48.2 c 0,-0.35 -62.38,0 -62.38,0 l -0.56,1.68 v 2.87 c 0,0.52 0.42,0.94 0.94,0.94 h 30.99 v 0 h 30.57 c 0.52,0 0.94,-0.42 0.94,-0.94 v -2.79 z"
   id="path37" />
	<path
   style="fill:#d38200"
   d="M 95.31,85.5 H 33.1 l -4.16,2.09 0.05,2.69 c 0.01,0.29 0.25,0.53 0.55,0.53 h 68.93 c 0.29,0 0.54,-0.23 0.55,-0.53 l 0.05,-2.64 z"
   id="path38" />
	<g
   id="g42">
		<g
   id="g41">
			<path
   style="fill:#d38200"
   d="m 43.13,77.32 h -3.58 c -0.59,0 -1.07,-1.86 -1.07,-2.45 l 5.71,-0.18 c 0,0.59 -0.48,2.63 -1.06,2.63 z"
   id="path39" />
			<path
   style="fill:#d38200"
   d="m 44.35,58.01 h -6.03 c -0.45,0 -0.84,-0.3 -0.97,-0.73 l -0.47,-3.93 h 8.83 l -0.4,3.93 c -0.12,0.43 -0.51,0.73 -0.96,0.73 z"
   id="path40" />
			<path
   style="fill:#d38200"
   d="m 38.32,78.51 h 6.03 c 0.45,0 1.34,0.28 1.46,0.71 0,0 -0.03,1.87 -0.03,2.61 0,0.74 -0.3,1.28 -0.97,1.28 h -6.95 c -0.67,0 -0.97,-0.6 -0.97,-1.28 0,-0.68 -0.03,-2.59 -0.03,-2.59 0.13,-0.43 1.01,-0.73 1.46,-0.73 z"
   id="path41" />
		</g>
	</g>
	<g
   id="g45">
		<g
   id="g44">
			<path
   style="fill:#d38200"
   d="m 89.63,77.32 h -3.58 c -0.59,0 -1.07,-1.86 -1.07,-2.45 l 5.71,-0.18 c 0,0.59 -0.47,2.63 -1.06,2.63 z"
   id="path42" />
			<path
   style="fill:#d38200"
   d="m 90.85,58.01 h -6.03 c -0.45,0 -0.84,-0.3 -0.97,-0.73 l -0.47,-3.93 h 8.83 l -0.4,3.93 c -0.12,0.43 -0.51,0.73 -0.96,0.73 z"
   id="path43" />
			<path
   style="fill:#d38200"
   d="m 84.82,78.51 h 6.03 c 0.45,0 1.34,0.28 1.46,0.71 0,0 -0.03,1.87 -0.03,2.61 0,0.74 -0.3,1.28 -0.97,1.28 h -6.95 c -0.67,0 -0.97,-0.6 -0.97,-1.28 0,-0.68 -0.03,-2.59 -0.03,-2.59 0.13,-0.43 1.01,-0.73 1.46,-0.73 z"
   id="path44" />
		</g>
	</g>
	<g
   id="g48">
		<g
   id="g47">
			<path
   style="fill:#d38200"
   d="m 74.13,77.32 h -3.58 c -0.59,0 -1.07,-1.86 -1.07,-2.45 l 5.71,-0.18 c 0,0.59 -0.47,2.63 -1.06,2.63 z"
   id="path45" />
			<path
   style="fill:#d38200"
   d="m 75.35,58.01 h -6.03 c -0.45,0 -0.84,-0.3 -0.97,-0.73 l -0.47,-3.93 h 8.83 l -0.4,3.93 c -0.12,0.43 -0.51,0.73 -0.96,0.73 z"
   id="path46" />
			<path
   style="fill:#d38200"
   d="m 69.32,78.51 h 6.03 c 0.45,0 1.34,0.28 1.46,0.71 0,0 -0.03,1.87 -0.03,2.61 0,0.74 -0.3,1.28 -0.97,1.28 h -6.95 c -0.67,0 -0.97,-0.6 -0.97,-1.28 0,-0.68 -0.03,-2.59 -0.03,-2.59 0.13,-0.43 1.01,-0.73 1.46,-0.73 z"
   id="path47" />
		</g>
	</g>
	<g
   id="g51">
		<g
   id="g50">
			<path
   style="fill:#d38200"
   d="m 58.63,77.32 h -3.58 c -0.59,0 -1.07,-1.86 -1.07,-2.45 l 5.71,-0.18 c 0,0.59 -0.47,2.63 -1.06,2.63 z"
   id="path48" />
			<path
   style="fill:#d38200"
   d="m 59.85,58.01 h -6.03 c -0.45,0 -0.84,-0.3 -0.97,-0.73 l -0.47,-3.93 h 8.83 l -0.4,3.93 c -0.12,0.43 -0.51,0.73 -0.96,0.73 z"
   id="path49" />
			<path
   style="fill:#d38200"
   d="m 53.82,78.51 h 6.03 c 0.45,0 1.34,0.28 1.46,0.71 0,0 -0.03,1.87 -0.03,2.61 0,0.74 -0.3,1.28 -0.97,1.28 h -6.95 c -0.67,0 -0.97,-0.6 -0.97,-1.28 0,-0.68 -0.03,-2.59 -0.03,-2.59 0.13,-0.43 1.01,-0.73 1.46,-0.73 z"
   id="path50" />
		</g>
	</g>
	<path
   style="fill:#fff176"
   d="m 95.67,45.52 c 0,-0.35 -0.18,-0.68 -0.45,-0.84 L 64.04,26.98 32.82,44.66 c -0.3,0.18 -0.49,0.51 -0.49,0.86 l -0.05,4.37 c 0,0.55 0.45,1 1,1 h 61.43 c 0.55,0 1,-0.45 1,-1 z"
   id="path51" />
	<polygon
   style="fill:#f2bc1a"
   points="40.16,44.33 87.84,44.33 64,30.8 "
   id="polygon51" />
	<polygon
   style="fill:#fff176"
   points="48.93,42.68 79.07,42.68 64,34.12 "
   id="polygon52" />
	<path
   style="fill:#fff176"
   d="M 93.39,82.02 H 34.61 c -0.58,0 -1.13,0.25 -1.52,0.68 l -4.04,4.51 c -0.28,0.31 -0.06,0.8 0.36,0.8 h 69.18 c 0.41,0 0.63,-0.49 0.36,-0.8 L 94.9,82.7 c -0.38,-0.43 -0.94,-0.68 -1.51,-0.68 z"
   id="path52" />
	<g
   id="g65">
		<g
   id="g55">
			<path
   style="fill:#fff176"
   d="m 89.63,75.51 h -3.58 c -0.59,0 -1.07,-0.48 -1.07,-1.07 V 58.46 c 0,-0.59 0.48,-1.07 1.07,-1.07 h 3.58 c 0.59,0 1.07,0.48 1.07,1.07 v 15.99 c 0,0.59 -0.48,1.06 -1.07,1.06 z"
   id="path53" />
			<path
   style="fill:#fff176"
   d="m 90.86,56.2 h -6.03 c -0.45,0 -0.84,-0.3 -0.97,-0.73 L 83.4,53.88 c -0.19,-0.64 0.3,-1.28 0.97,-1.28 h 6.95 c 0.67,0 1.15,0.64 0.97,1.28 l -0.46,1.59 C 91.7,55.9 91.3,56.2 90.86,56.2 Z"
   id="path54" />
			<path
   style="fill:#fff176"
   d="m 84.82,76.71 h 6.03 c 0.45,0 0.84,0.3 0.97,0.73 l 0.46,1.59 c 0.19,0.64 -0.3,1.28 -0.97,1.28 h -6.95 c -0.67,0 -1.15,-0.64 -0.97,-1.28 l 0.46,-1.59 c 0.13,-0.44 0.53,-0.73 0.97,-0.73 z"
   id="path55" />
		</g>
		<g
   id="g58">
			<path
   style="fill:#fff176"
   d="m 43.13,75.51 h -3.58 c -0.59,0 -1.07,-0.48 -1.07,-1.07 V 58.46 c 0,-0.59 0.48,-1.07 1.07,-1.07 h 3.58 c 0.59,0 1.07,0.48 1.07,1.07 v 15.99 c -0.01,0.59 -0.49,1.06 -1.07,1.06 z"
   id="path56" />
			<path
   style="fill:#fff176"
   d="m 44.35,56.2 h -6.03 c -0.45,0 -0.84,-0.3 -0.97,-0.73 l -0.46,-1.59 c -0.19,-0.64 0.3,-1.28 0.97,-1.28 h 6.95 c 0.67,0 1.15,0.64 0.97,1.28 l -0.46,1.59 C 45.19,55.9 44.8,56.2 44.35,56.2 Z"
   id="path57" />
			<path
   style="fill:#fff176"
   d="m 38.32,76.71 h 6.03 c 0.45,0 0.84,0.3 0.97,0.73 l 0.46,1.59 c 0.19,0.64 -0.3,1.28 -0.97,1.28 h -6.95 c -0.67,0 -1.15,-0.64 -0.97,-1.28 l 0.46,-1.59 c 0.13,-0.44 0.52,-0.73 0.97,-0.73 z"
   id="path58" />
		</g>
		<g
   id="g61">
			<path
   style="fill:#fff176"
   d="m 58.63,75.51 h -3.58 c -0.59,0 -1.07,-0.48 -1.07,-1.07 V 58.46 c 0,-0.59 0.48,-1.07 1.07,-1.07 h 3.58 c 0.59,0 1.07,0.48 1.07,1.07 v 15.99 c -0.01,0.59 -0.48,1.06 -1.07,1.06 z"
   id="path59" />
			<path
   style="fill:#fff176"
   d="m 59.85,56.2 h -6.03 c -0.45,0 -0.84,-0.3 -0.97,-0.73 l -0.46,-1.59 c -0.19,-0.64 0.3,-1.28 0.97,-1.28 h 6.95 c 0.67,0 1.15,0.64 0.97,1.28 l -0.46,1.59 C 60.69,55.9 60.3,56.2 59.85,56.2 Z"
   id="path60" />
			<path
   style="fill:#fff176"
   d="m 53.82,76.71 h 6.03 c 0.45,0 0.84,0.3 0.97,0.73 l 0.46,1.59 c 0.19,0.64 -0.3,1.28 -0.97,1.28 h -6.95 c -0.67,0 -1.15,-0.64 -0.97,-1.28 l 0.46,-1.59 c 0.13,-0.44 0.52,-0.73 0.97,-0.73 z"
   id="path61" />
		</g>
		<g
   id="g64">
			<path
   style="fill:#fff176"
   d="m 74.13,75.51 h -3.58 c -0.59,0 -1.07,-0.48 -1.07,-1.07 V 58.46 c 0,-0.59 0.48,-1.07 1.07,-1.07 h 3.58 c 0.59,0 1.07,0.48 1.07,1.07 v 15.99 c -0.01,0.59 -0.48,1.06 -1.07,1.06 z"
   id="path62" />
			<path
   style="fill:#fff176"
   d="m 75.35,56.2 h -6.03 c -0.45,0 -0.84,-0.3 -0.97,-0.73 l -0.46,-1.59 c -0.19,-0.64 0.3,-1.28 0.97,-1.28 h 6.95 c 0.67,0 1.15,0.64 0.97,1.28 l -0.46,1.59 C 76.19,55.9 75.8,56.2 75.35,56.2 Z"
   id="path63" />
			<path
   style="fill:#fff176"
   d="m 69.32,76.71 h 6.03 c 0.45,0 0.84,0.3 0.97,0.73 l 0.46,1.59 c 0.19,0.64 -0.3,1.28 -0.97,1.28 h -6.95 c -0.67,0 -1.15,-0.64 -0.97,-1.28 l 0.46,-1.59 c 0.13,-0.44 0.53,-0.73 0.97,-0.73 z"
   id="path64" />
		</g>
	</g>
</g><path
   style="fill:#000000;stroke:#ce1d1d;stroke-width:16;stroke-linecap:butt;stroke-linejoin:round;stroke-opacity:1"
   d="M 14.611414,15.951333 115.31452,112.69695"
   id="path12"
   inkscape:path-effect="#path-effect12"
   inkscape:original-d="M 14.611414,15.951333 C 46.543257,45.37155 83.850374,83.854626 115.31452,112.69695"
   sodipodi:nodetypes="cc" /><path
   style="fill:#000000;stroke:#ce1d1d;stroke-width:16;stroke-linecap:butt;stroke-linejoin:round;stroke-opacity:1"
   d="M 14.611414,15.951333 115.31452,112.69695"
   id="path15"
   inkscape:path-effect="#path-effect16"
   inkscape:original-d="M 14.611414,15.951333 C 46.543257,45.37155 83.850374,83.854626 115.31452,112.69695"
   sodipodi:nodetypes="cc"
   transform="matrix(-1,0,0,1,129.92593,0)" /></svg>
