<?xml version="1.0" encoding="UTF-8" standalone="no"?>
<!-- Generator: Adobe Illustrator 25.2.3, SVG Export Plug-In . SVG Version: 6.00 Build 0)  -->

<svg
   version="1.1"
   id="Layer_3"
   x="0px"
   y="0px"
   viewBox="0 0 128 128"
   style="enable-background:new 0 0 128 128;"
   xml:space="preserve"
   sodipodi:docname="shrub.svg"
   inkscape:version="1.2.2 (b0a8486541, 2022-12-01)"
   xmlns:inkscape="http://www.inkscape.org/namespaces/inkscape"
   xmlns:sodipodi="http://sodipodi.sourceforge.net/DTD/sodipodi-0.dtd"
   xmlns="http://www.w3.org/2000/svg"
   xmlns:svg="http://www.w3.org/2000/svg"><defs
   id="defs15" /><sodipodi:namedview
   id="namedview13"
   pagecolor="#ffffff"
   bordercolor="#666666"
   borderopacity="1.0"
   inkscape:showpageshadow="2"
   inkscape:pageopacity="0.0"
   inkscape:pagecheckerboard="0"
   inkscape:deskcolor="#d1d1d1"
   showgrid="false"
   inkscape:zoom="1.6024699"
   inkscape:cx="50.234953"
   inkscape:cy="20.905229"
   inkscape:window-width="1156"
   inkscape:window-height="632"
   inkscape:window-x="3644"
   inkscape:window-y="963"
   inkscape:window-maximized="1"
   inkscape:current-layer="Layer_3" />
<path
   style="fill:#5b9821"
   d="m 32,48.436187 c 0,0 2.43,-7.3 8.16,-11.88 5.73,-4.58 58.85,15.04 58.85,15.04 0,0 9.28,3.31 14.77,12.08 3.69,5.9 5.75,14.62 1.84,25.150003 -11.20355,26.07812 -30.552534,26.94658 -46.572818,27.12242 -16.020283,0.17584 -25.783076,1.09959 -39.687182,-5.78242 -15.09,-7.94 -13.22,-19.81 -13.22,-19.81 0,0 -10.16,-10.160003 -5.76,-24.310003 5.3,-17.04 21.62,-17.61 21.62,-17.61 z"
   id="path2"
   sodipodi:nodetypes="csccczcccc" />
<path
   style="fill:#8bc02b"
   d="m 66.37,78.786187 c 13.75,-2.29 18.04,-8.16 21.77,-13.6 4.11,-6 3.01,-11.03 5.87,-11.17 2.86,-0.14 5.14,5.02 2,14.03 -4.44,12.74 -13.57,14.61 -13.75,18.04 -0.14,2.720003 9.72,2.910003 18.62,-1.43 12.89,-6.3 12.89,-21.05 12.89,-21.05 0,0 -2.29,-4.73 -6.73,-8.02 -4.44,-3.29 -7.74,-5.01 -7.74,-5.01 0,0 -5.3,-19.9 -29.35,-23.2 -24.05,-3.3 -33.94,13.47 -33.94,13.47 0,0 0.86,5.44 5.01,11.74 3.31,5.03 6.73,4.87 6.44,7.73 -0.19,1.86 -6.16,2.43 -12.46,-0.29 -5.74,-2.48 -7.16,-5.87 -8.73,-5.87 -1.57,0 -14.59,7.25 -9.16,22.62 4.3,12.170003 18.51,14.450003 21.05,14.890003 7.45,1.29 11.74,-3.58 6.44,-7.450003 -5.3,-3.87 -11.17,-6.16 -9.88,-10.02 1.39,-4.18 6.35,0.18 12.31,2.76 5.89,2.55 13.02,2.89 19.34,1.83 z"
   id="path4" />



</svg>
