<?xml version="1.0" encoding="UTF-8" standalone="no"?>
<!-- Generator: Adobe Illustrator 25.2.3, SVG Export Plug-In . SVG Version: 6.00 Build 0)  -->

<svg
   version="1.1"
   id="Layer_3"
   x="0px"
   y="0px"
   viewBox="0 0 128 128"
   style="enable-background:new 0 0 128 128;"
   xml:space="preserve"
   sodipodi:docname="sugar-cube.svg"
   inkscape:version="1.2.2 (b0a8486541, 2022-12-01)"
   xmlns:inkscape="http://www.inkscape.org/namespaces/inkscape"
   xmlns:sodipodi="http://sodipodi.sourceforge.net/DTD/sodipodi-0.dtd"
   xmlns="http://www.w3.org/2000/svg"
   xmlns:svg="http://www.w3.org/2000/svg"><defs
   id="defs60" /><sodipodi:namedview
   id="namedview58"
   pagecolor="#ffffff"
   bordercolor="#666666"
   borderopacity="1.0"
   inkscape:showpageshadow="2"
   inkscape:pageopacity="0.0"
   inkscape:pagecheckerboard="0"
   inkscape:deskcolor="#d1d1d1"
   showgrid="false"
   inkscape:zoom="2.1614624"
   inkscape:cx="83.970927"
   inkscape:cy="71.248059"
   inkscape:window-width="1066"
   inkscape:window-height="925"
   inkscape:window-x="3734"
   inkscape:window-y="670"
   inkscape:window-maximized="1"
   inkscape:current-layer="Layer_3" />
<path
   style="opacity:0.5;fill:#FFFFFF;"
   d="M63.03,5.38L16.79,20.85l-6.58,3.79L9.38,49.48l5.95,43.37l30.91,16.7l19.7,7.1  l14.53-5.95l34.17-15.67c0,0,3.34-0.27,1.78-5.38s0.42-53.34,0.42-53.34l0.18-11.58c0,0-0.02-2.73-9.07-4.71S63.03,5.38,63.03,5.38z  "
   id="path2" />
<path
   style="opacity:0.7;fill:#7EC8EE;"
   d="M9.31,25.82l54.45,24.9l52.26-23.8c0,0,0.27,63.47-0.55,63.75  c-0.41,0.14-51.16-19.7-51.16-19.7l-49.79,19.7L9.59,35.94L9.31,25.82z"
   id="path4" />
<polygon
   style="opacity:0.7;fill:#63ABDE;"
   points="65.95,116.65 40.5,107.35 15.33,92.85 14.51,90.66 62.39,69.04 115.47,90.66   114.65,95.04 93.04,105.43 "
   id="polygon6" />
<polygon
   style="opacity:0.7;fill:#B0E4FF;"
   points="62.94,5.02 15.33,21.16 9.31,25.82 17.52,29.65 61.57,48.8 65.13,48.25   116.02,23.9 "
   id="polygon8" />


<radialGradient
   id="SVGID_1_"
   cx="61.8452"
   cy="58.6697"
   r="46.1695"
   gradientTransform="matrix(-0.7728 0.6347 -0.8463 -1.0304 159.2884 79.8721)"
   gradientUnits="userSpaceOnUse">
	<stop
   offset="0.0997"
   style="stop-color:#FFFFFF;stop-opacity:0.9"
   id="stop14" />
	<stop
   offset="1"
   style="stop-color:#FCFCFC;stop-opacity:0"
   id="stop16" />
</radialGradient>
<polygon
   style="fill:#cccccc"
   points="15.32,29.69 63.28,51.61 65.76,112.81 60.4,114.04 23.86,97.78 15.33,92.85   9.59,35.94 10.9,27.63 "
   id="polygon19" />
<radialGradient
   id="SVGID_2_"
   cx="69.4654"
   cy="53.8452"
   r="54.6344"
   gradientTransform="matrix(0.8254 0.5645 -0.6684 0.9774 48.1168 -37.9956)"
   gradientUnits="userSpaceOnUse">
	<stop
   offset="0.1516"
   style="stop-color:#32AFE0;stop-opacity:0.9"
   id="stop21" />
	<stop
   offset="0.963"
   style="stop-color:#32AFE0;stop-opacity:0"
   id="stop23" />
</radialGradient>
<polygon
   style="fill:#ececec"
   points="64.52,51.89 65.49,115.43 108.9,97.92 115.38,93.37 115.01,87.85 117.03,24.73   110.42,26.39 "
   id="polygon26" />
<radialGradient
   id="SVGID_3_"
   cx="63.6464"
   cy="49.4809"
   r="47.1483"
   gradientTransform="matrix(-1.997193e-03 -1 2.0491 -4.092394e-03 -37.6163 113.3297)"
   gradientUnits="userSpaceOnUse">
	<stop
   offset="0.2558"
   style="stop-color:#67CCF9;stop-opacity:0.9"
   id="stop28" />
	<stop
   offset="0.416"
   style="stop-color:#6CCDF9;stop-opacity:0.6743"
   id="stop30" />
	<stop
   offset="0.6164"
   style="stop-color:#7CD1F9;stop-opacity:0.3921"
   id="stop32" />
	<stop
   offset="0.8373"
   style="stop-color:#95D8F9;stop-opacity:0.0808"
   id="stop34" />
	<stop
   offset="0.8947"
   style="stop-color:#9DDAF9;stop-opacity:0"
   id="stop36" />
</radialGradient>
<polygon
   style="fill:#f2f2f2"
   points="15.87,31.2 41.78,43.05 63.49,51.8 114.56,26.1 115.74,24.99 62.67,6.11 13.8,21.96   8.84,25.55 8.98,28.72 "
   id="polygon39" />






<path
   style="fill:#FFFFFF;"
   d="M26.41,21.75c-1.74-2.56-8.72,0.22-11.4,1.69s-4.25,3.33-3.98,5.4s3.76,3.11,7.58,4.8  c3.82,1.69,32.87,14.9,35.06,16.08c3.12,1.69,6.47,3.86,7.47,10.41c0.65,4.31,2.44,45.69,2.51,47.11c0.16,3.36-0.13,8.23,1.9,8.15  c1.78-0.07,1.42-4.5,1.37-8.21c-0.05-3.71,0.31-44.05,0.32-46.78c0.02-3.41,1.12-7.25,3.41-9.27s6.64-4.58,11.8-7.21  c6.18-3.14,19.97-9.92,25.2-12.26c5.23-2.34,8.23-3.05,8.23-5.62s-11.89-6.11-13.3-6.22c-1.42-0.11-2.94,0.38-2.62,2.13  c0.33,1.74,1.66,4.71-1.01,7.05s-8.45,5.52-11.75,7.18c-5.69,2.85-19.41,10.09-24.1,9.76c-4.69-0.33-7.63-1.15-14.67-4.09  c-7.03-2.94-15.49-7.2-19.63-9.43c-2.94-1.59-4.96-3.93-4.8-6.38C24.18,23.6,27.92,23.96,26.41,21.75z"
   id="path53" />
<path
   style="fill:#FFFFFF;"
   d="M43.75,15.86c0.67,1.73,6.71-0.05,9.6-0.93c2.89-0.87,7.85-2.45,10.8-2.62  c2.94-0.16,12.81,2.84,15.32,3.33c2.51,0.49,4.69,0.6,5.23-0.27s-3-2.78-7.96-4.47S66,6.54,63.54,6.86  C61,7.2,55.55,9.69,51.22,11.22C48.6,12.15,42.93,13.73,43.75,15.86z"
   id="path55" />
<path
   style="fill:#b3b3b3"
   d="M63.56,3.92c-4.11-0.57-12.68,3.86-24.4,7.86c-12.51,4.27-23.06,7.12-26.74,8.96  c-3.03,1.52-4.55,4-4.69,7.31C7.6,31.35,7.32,40.72,9.8,64.7c0.76,7.3,3.53,25.86,3.89,27.17c1.85,6.73,4.93,1.91,4.24-3.33  c-0.49-3.7-2.07-12.13-3.45-26.33s-2.76-32.11-1.52-35.15s9.19-5.38,14.75-7.03c17.23-5.1,32.53-11.85,35.84-11.85  s25.77,8.13,29.5,9.51c3.72,1.38,19.71,5.93,20.54,8.13s0.14,58.58,0.28,61.61c0.14,3.03-0.65,6.83,1.59,7.24  c2.25,0.4,2.82-3.38,2.82-6s-0.14-27.7,0.14-39.14c0.28-11.44,2.07-22.6-1.1-26.6s-12.96-6.06-29.22-11.72  C77.96,7.7,67.55,4.47,63.56,3.92z"
   id="path12" /><path
   style="fill:#b3b3b3;fill-opacity:1"
   d="m 14.51,90.65 c -0.51,3.7 2.06,4.62 6.83,7.92 1.95,1.35 8.17,4.83 15.41,8.42 10.49,5.2 23.16,10.42 28.38,10.51 7.35,0.13 18.19,-5.83 29.67,-11.2 11.27,-5.27 21.34,-9.5 22.15,-11.46 1.25,-3.01 1.4,-3.75 -0.11,-5.25 l -3.69485,2.79085 c 0,0 -10.12515,5.70915 -19.26515,9.87915 -7.5,3.42 -24.98,11.1 -29.03,11.45 -4.05,0.35 -18.52,-6.52 -24.98,-9.6 C 32.58,100.64 17.170755,92.242137 17.970755,90.392137 Z"
   id="path10"
   sodipodi:nodetypes="cccccccccsccc" /><path
   id="path808"
   style="fill:#b3b3b3;stroke-width:3.77953;stroke-linecap:round;stroke-linejoin:round"
   d="m 110.77127,39.262819 c 0,1.970351 -0.9167,3.403438 -2.24943,3.403437 -1.33273,1e-6 -2.41312,-1.597284 -2.41312,-3.567637 0,-1.970352 0.89097,-3.264185 2.22372,-3.264183 1.33273,-2e-6 2.43883,1.45803 2.43883,3.428383 z"
   sodipodi:nodetypes="sssss" /><path
   id="path805"
   style="fill:#b3b3b3;stroke-width:3.77953;stroke-linecap:round;stroke-linejoin:round"
   d="m 110.00935,48.568612 c 0,2.034606 -0.99417,2.759214 -2.42753,2.759213 -1.43335,1e-6 -2.45426,-0.938469 -2.45426,-2.973077 0,-2.034606 0.95824,-3.370632 2.3916,-3.37063 1.43334,-2e-6 2.49019,1.549887 2.49019,3.584494 z"
   sodipodi:nodetypes="sssss" /><path
   id="path810"
   style="fill:#b3b3b3;stroke-width:3.77953;stroke-linecap:round;stroke-linejoin:round"
   d="m 104.69936,42.928967 c 0,1.402162 -1.09099,1.90153 -2.66393,1.901528 -1.57294,2e-6 -2.693276,-0.64675 -2.693276,-2.048914 0,-1.402161 1.051566,-2.322892 2.624516,-2.32289 1.57291,-2e-6 2.73269,1.068113 2.73269,2.470276 z"
   sodipodi:nodetypes="sssss" /><path
   id="path812"
   style="fill:#ececec;fill-opacity:1;stroke-width:3.77953;stroke-linecap:round;stroke-linejoin:round"
   d="m 15.004066,39.282061 c 0.250781,-1.954327 1.342424,-3.259084 2.664315,-3.089458 1.321892,0.169625 2.190198,1.891428 1.939417,3.845757 -0.250781,1.954328 -1.299179,3.124238 -2.62109,2.954608 -1.321892,-0.169624 -2.233422,-1.756579 -1.982642,-3.710907 z"
   sodipodi:nodetypes="sssss" /><path
   id="path814"
   style="fill:#ececec;fill-opacity:1;stroke-width:3.77953;stroke-linecap:round;stroke-linejoin:round"
   d="m 24.502465,39.436742 c 2.012628,-0.298243 2.87514,0.578971 3.085248,1.996848 0.210109,1.417867 -0.568573,2.565315 -2.581203,2.863559 -2.012628,0.298243 -3.474687,-0.453804 -3.684794,-1.871682 -0.210109,-1.417856 1.16812,-2.690481 3.180749,-2.988725 z"
   sodipodi:nodetypes="sssss" /><path
   id="path816"
   style="fill:#ececec;fill-opacity:1;stroke-width:3.77953;stroke-linecap:round;stroke-linejoin:round"
   d="m 19.420912,44.76861 c 1.387016,-0.205536 2.040913,0.800469 2.271481,2.356418 0.230571,1.555949 -0.24497,2.758988 -1.631987,2.964524 -1.387015,0.205536 -2.451945,-0.699705 -2.682514,-2.255664 -0.230568,-1.555919 0.656003,-2.859741 2.04302,-3.065278 z"
   sodipodi:nodetypes="sssss" /></svg>
